<?xml version="1.0" encoding="utf-8" standalone="no"?>
<!DOCTYPE svg PUBLIC "-//W3C//DTD SVG 1.1//EN"
  "http://www.w3.org/Graphics/SVG/1.1/DTD/svg11.dtd">
<svg xmlns:xlink="http://www.w3.org/1999/xlink" width="460.8pt" height="345.6pt" viewBox="0 0 460.8 345.6" xmlns="http://www.w3.org/2000/svg" version="1.1">
 <metadata>
  <rdf:RDF xmlns:dc="http://purl.org/dc/elements/1.1/" xmlns:cc="http://creativecommons.org/ns#" xmlns:rdf="http://www.w3.org/1999/02/22-rdf-syntax-ns#">
   <cc:Work>
    <dc:type rdf:resource="http://purl.org/dc/dcmitype/StillImage"/>
    <dc:date>2022-11-27T19:02:07.062999</dc:date>
    <dc:format>image/svg+xml</dc:format>
    <dc:creator>
     <cc:Agent>
      <dc:title>Matplotlib v3.6.1, https://matplotlib.org/</dc:title>
     </cc:Agent>
    </dc:creator>
   </cc:Work>
  </rdf:RDF>
 </metadata>
 <defs>
  <style type="text/css">*{stroke-linejoin: round; stroke-linecap: butt}</style>
 </defs>
 <g id="figure_1">
  <g id="patch_1">
   <path d="M 0 345.6 
L 460.8 345.6 
L 460.8 0 
L 0 0 
z
" style="fill: #ffffff"/>
  </g>
  <g id="axes_1">
   <g id="patch_2">
    <path d="M 54.02 303.64 
L 450 303.64 
L 450 26.88 
L 54.02 26.88 
z
" style="fill: #ffffff"/>
   </g>
   <g id="patch_3">
    <path d="M 72.019091 303.64 
L 75.618909 303.64 
L 75.618909 40.059048 
L 72.019091 40.059048 
z
" clip-path="url(#p787fdf507e)" style="fill: #1f77b4"/>
   </g>
   <g id="patch_4">
    <path d="M 75.618909 303.64 
L 79.218727 303.64 
L 79.218727 290.591438 
L 75.618909 290.591438 
z
" clip-path="url(#p787fdf507e)" style="fill: #1f77b4"/>
   </g>
   <g id="patch_5">
    <path d="M 79.218727 303.64 
L 82.818545 303.64 
L 82.818545 289.76558 
L 79.218727 289.76558 
z
" clip-path="url(#p787fdf507e)" style="fill: #1f77b4"/>
   </g>
   <g id="patch_6">
    <path d="M 82.818545 303.64 
L 86.418364 303.64 
L 86.418364 290.624472 
L 82.818545 290.624472 
z
" clip-path="url(#p787fdf507e)" style="fill: #1f77b4"/>
   </g>
   <g id="patch_7">
    <path d="M 86.418364 303.64 
L 90.018182 303.64 
L 90.018182 290.195026 
L 86.418364 290.195026 
z
" clip-path="url(#p787fdf507e)" style="fill: #1f77b4"/>
   </g>
   <g id="patch_8">
    <path d="M 90.018182 303.64 
L 93.618 303.64 
L 93.618 289.76558 
L 90.018182 289.76558 
z
" clip-path="url(#p787fdf507e)" style="fill: #1f77b4"/>
   </g>
   <g id="patch_9">
    <path d="M 93.618 303.64 
L 97.217818 303.64 
L 97.217818 287.717451 
L 93.618 287.717451 
z
" clip-path="url(#p787fdf507e)" style="fill: #1f77b4"/>
   </g>
   <g id="patch_10">
    <path d="M 97.217818 303.64 
L 100.817636 303.64 
L 100.817636 289.071859 
L 97.217818 289.071859 
z
" clip-path="url(#p787fdf507e)" style="fill: #1f77b4"/>
   </g>
   <g id="patch_11">
    <path d="M 100.817636 303.64 
L 104.417455 303.64 
L 104.417455 286.693387 
L 100.817636 286.693387 
z
" clip-path="url(#p787fdf507e)" style="fill: #1f77b4"/>
   </g>
   <g id="patch_12">
    <path d="M 104.417455 303.64 
L 108.017273 303.64 
L 108.017273 287.188902 
L 104.417455 287.188902 
z
" clip-path="url(#p787fdf507e)" style="fill: #1f77b4"/>
   </g>
   <g id="patch_13">
    <path d="M 108.017273 303.64 
L 111.617091 303.64 
L 111.617091 287.321039 
L 108.017273 287.321039 
z
" clip-path="url(#p787fdf507e)" style="fill: #1f77b4"/>
   </g>
   <g id="patch_14">
    <path d="M 111.617091 303.64 
L 115.216909 303.64 
L 115.216909 287.02373 
L 111.617091 287.02373 
z
" clip-path="url(#p787fdf507e)" style="fill: #1f77b4"/>
   </g>
   <g id="patch_15">
    <path d="M 115.216909 303.64 
L 118.816727 303.64 
L 118.816727 285.900563 
L 115.216909 285.900563 
z
" clip-path="url(#p787fdf507e)" style="fill: #1f77b4"/>
   </g>
   <g id="patch_16">
    <path d="M 118.816727 303.64 
L 122.416545 303.64 
L 122.416545 284.975601 
L 118.816727 284.975601 
z
" clip-path="url(#p787fdf507e)" style="fill: #1f77b4"/>
   </g>
   <g id="patch_17">
    <path d="M 122.416545 303.64 
L 126.016364 303.64 
L 126.016364 285.537185 
L 122.416545 285.537185 
z
" clip-path="url(#p787fdf507e)" style="fill: #1f77b4"/>
   </g>
   <g id="patch_18">
    <path d="M 126.016364 303.64 
L 129.616182 303.64 
L 129.616182 282.993541 
L 126.016364 282.993541 
z
" clip-path="url(#p787fdf507e)" style="fill: #1f77b4"/>
   </g>
   <g id="patch_19">
    <path d="M 129.616182 303.64 
L 133.216 303.64 
L 133.216 282.101614 
L 129.616182 282.101614 
z
" clip-path="url(#p787fdf507e)" style="fill: #1f77b4"/>
   </g>
   <g id="patch_20">
    <path d="M 133.216 303.64 
L 136.815818 303.64 
L 136.815818 282.002511 
L 133.216 282.002511 
z
" clip-path="url(#p787fdf507e)" style="fill: #1f77b4"/>
   </g>
   <g id="patch_21">
    <path d="M 136.815818 303.64 
L 140.415636 303.64 
L 140.415636 279.921348 
L 136.815818 279.921348 
z
" clip-path="url(#p787fdf507e)" style="fill: #1f77b4"/>
   </g>
   <g id="patch_22">
    <path d="M 140.415636 303.64 
L 144.015455 303.64 
L 144.015455 278.666043 
L 140.415636 278.666043 
z
" clip-path="url(#p787fdf507e)" style="fill: #1f77b4"/>
   </g>
   <g id="patch_23">
    <path d="M 144.015455 303.64 
L 147.615273 303.64 
L 147.615273 279.09549 
L 144.015455 279.09549 
z
" clip-path="url(#p787fdf507e)" style="fill: #1f77b4"/>
   </g>
   <g id="patch_24">
    <path d="M 147.615273 303.64 
L 151.215091 303.64 
L 151.215091 278.666043 
L 147.615273 278.666043 
z
" clip-path="url(#p787fdf507e)" style="fill: #1f77b4"/>
   </g>
   <g id="patch_25">
    <path d="M 151.215091 303.64 
L 154.814909 303.64 
L 154.814909 277.212533 
L 151.215091 277.212533 
z
" clip-path="url(#p787fdf507e)" style="fill: #1f77b4"/>
   </g>
   <g id="patch_26">
    <path d="M 154.814909 303.64 
L 158.414727 303.64 
L 158.414727 277.179498 
L 154.814909 277.179498 
z
" clip-path="url(#p787fdf507e)" style="fill: #1f77b4"/>
   </g>
   <g id="patch_27">
    <path d="M 158.414727 303.64 
L 162.014545 303.64 
L 162.014545 277.972322 
L 158.414727 277.972322 
z
" clip-path="url(#p787fdf507e)" style="fill: #1f77b4"/>
   </g>
   <g id="patch_28">
    <path d="M 162.014545 303.64 
L 165.614364 303.64 
L 165.614364 278.302666 
L 162.014545 278.302666 
z
" clip-path="url(#p787fdf507e)" style="fill: #1f77b4"/>
   </g>
   <g id="patch_29">
    <path d="M 165.614364 303.64 
L 169.214182 303.64 
L 169.214182 279.062455 
L 165.614364 279.062455 
z
" clip-path="url(#p787fdf507e)" style="fill: #1f77b4"/>
   </g>
   <g id="patch_30">
    <path d="M 169.214182 303.64 
L 172.814 303.64 
L 172.814 278.203563 
L 169.214182 278.203563 
z
" clip-path="url(#p787fdf507e)" style="fill: #1f77b4"/>
   </g>
   <g id="patch_31">
    <path d="M 172.814 303.64 
L 176.413818 303.64 
L 176.413818 277.509842 
L 172.814 277.509842 
z
" clip-path="url(#p787fdf507e)" style="fill: #1f77b4"/>
   </g>
   <g id="patch_32">
    <path d="M 176.413818 303.64 
L 180.013636 303.64 
L 180.013636 280.185623 
L 176.413818 280.185623 
z
" clip-path="url(#p787fdf507e)" style="fill: #1f77b4"/>
   </g>
   <g id="patch_33">
    <path d="M 180.013636 303.64 
L 183.613455 303.64 
L 183.613455 279.987417 
L 180.013636 279.987417 
z
" clip-path="url(#p787fdf507e)" style="fill: #1f77b4"/>
   </g>
   <g id="patch_34">
    <path d="M 183.613455 303.64 
L 187.213273 303.64 
L 187.213273 279.062455 
L 183.613455 279.062455 
z
" clip-path="url(#p787fdf507e)" style="fill: #1f77b4"/>
   </g>
   <g id="patch_35">
    <path d="M 187.213273 303.64 
L 190.813091 303.64 
L 190.813091 280.383829 
L 187.213273 280.383829 
z
" clip-path="url(#p787fdf507e)" style="fill: #1f77b4"/>
   </g>
   <g id="patch_36">
    <path d="M 190.813091 303.64 
L 194.412909 303.64 
L 194.412909 281.804305 
L 190.813091 281.804305 
z
" clip-path="url(#p787fdf507e)" style="fill: #1f77b4"/>
   </g>
   <g id="patch_37">
    <path d="M 194.412909 303.64 
L 198.012727 303.64 
L 198.012727 282.101614 
L 194.412909 282.101614 
z
" clip-path="url(#p787fdf507e)" style="fill: #1f77b4"/>
   </g>
   <g id="patch_38">
    <path d="M 198.012727 303.64 
L 201.612545 303.64 
L 201.612545 284.149743 
L 198.012727 284.149743 
z
" clip-path="url(#p787fdf507e)" style="fill: #1f77b4"/>
   </g>
   <g id="patch_39">
    <path d="M 201.612545 303.64 
L 205.212364 303.64 
L 205.212364 285.338979 
L 201.612545 285.338979 
z
" clip-path="url(#p787fdf507e)" style="fill: #1f77b4"/>
   </g>
   <g id="patch_40">
    <path d="M 205.212364 303.64 
L 208.812182 303.64 
L 208.812182 287.089799 
L 205.212364 287.089799 
z
" clip-path="url(#p787fdf507e)" style="fill: #1f77b4"/>
   </g>
   <g id="patch_41">
    <path d="M 208.812182 303.64 
L 212.412 303.64 
L 212.412 287.122833 
L 208.812182 287.122833 
z
" clip-path="url(#p787fdf507e)" style="fill: #1f77b4"/>
   </g>
   <g id="patch_42">
    <path d="M 212.412 303.64 
L 216.011818 303.64 
L 216.011818 289.732545 
L 212.412 289.732545 
z
" clip-path="url(#p787fdf507e)" style="fill: #1f77b4"/>
   </g>
   <g id="patch_43">
    <path d="M 216.011818 303.64 
L 219.611636 303.64 
L 219.611636 288.642412 
L 216.011818 288.642412 
z
" clip-path="url(#p787fdf507e)" style="fill: #1f77b4"/>
   </g>
   <g id="patch_44">
    <path d="M 219.611636 303.64 
L 223.211455 303.64 
L 223.211455 291.714605 
L 219.611636 291.714605 
z
" clip-path="url(#p787fdf507e)" style="fill: #1f77b4"/>
   </g>
   <g id="patch_45">
    <path d="M 223.211455 303.64 
L 226.811273 303.64 
L 226.811273 292.639567 
L 223.211455 292.639567 
z
" clip-path="url(#p787fdf507e)" style="fill: #1f77b4"/>
   </g>
   <g id="patch_46">
    <path d="M 226.811273 303.64 
L 230.411091 303.64 
L 230.411091 293.069013 
L 226.811273 293.069013 
z
" clip-path="url(#p787fdf507e)" style="fill: #1f77b4"/>
   </g>
   <g id="patch_47">
    <path d="M 230.411091 303.64 
L 234.010909 303.64 
L 234.010909 292.804738 
L 230.411091 292.804738 
z
" clip-path="url(#p787fdf507e)" style="fill: #1f77b4"/>
   </g>
   <g id="patch_48">
    <path d="M 234.010909 303.64 
L 237.610727 303.64 
L 237.610727 293.498459 
L 234.010909 293.498459 
z
" clip-path="url(#p787fdf507e)" style="fill: #1f77b4"/>
   </g>
   <g id="patch_49">
    <path d="M 237.610727 303.64 
L 241.210545 303.64 
L 241.210545 294.126112 
L 237.610727 294.126112 
z
" clip-path="url(#p787fdf507e)" style="fill: #1f77b4"/>
   </g>
   <g id="patch_50">
    <path d="M 241.210545 303.64 
L 244.810364 303.64 
L 244.810364 294.126112 
L 241.210545 294.126112 
z
" clip-path="url(#p787fdf507e)" style="fill: #1f77b4"/>
   </g>
   <g id="patch_51">
    <path d="M 244.810364 303.64 
L 248.410182 303.64 
L 248.410182 294.225215 
L 244.810364 294.225215 
z
" clip-path="url(#p787fdf507e)" style="fill: #1f77b4"/>
   </g>
   <g id="patch_52">
    <path d="M 248.410182 303.64 
L 252.01 303.64 
L 252.01 294.819833 
L 248.410182 294.819833 
z
" clip-path="url(#p787fdf507e)" style="fill: #1f77b4"/>
   </g>
   <g id="patch_53">
    <path d="M 252.01 303.64 
L 255.609818 303.64 
L 255.609818 294.687695 
L 252.01 294.687695 
z
" clip-path="url(#p787fdf507e)" style="fill: #1f77b4"/>
   </g>
   <g id="patch_54">
    <path d="M 255.609818 303.64 
L 259.209636 303.64 
L 259.209636 295.150176 
L 255.609818 295.150176 
z
" clip-path="url(#p787fdf507e)" style="fill: #1f77b4"/>
   </g>
   <g id="patch_55">
    <path d="M 259.209636 303.64 
L 262.809455 303.64 
L 262.809455 294.258249 
L 259.209636 294.258249 
z
" clip-path="url(#p787fdf507e)" style="fill: #1f77b4"/>
   </g>
   <g id="patch_56">
    <path d="M 262.809455 303.64 
L 266.409273 303.64 
L 266.409273 295.447485 
L 262.809455 295.447485 
z
" clip-path="url(#p787fdf507e)" style="fill: #1f77b4"/>
   </g>
   <g id="patch_57">
    <path d="M 266.409273 303.64 
L 270.009091 303.64 
L 270.009091 295.414451 
L 266.409273 295.414451 
z
" clip-path="url(#p787fdf507e)" style="fill: #1f77b4"/>
   </g>
   <g id="patch_58">
    <path d="M 270.009091 303.64 
L 273.608909 303.64 
L 273.608909 294.95197 
L 270.009091 294.95197 
z
" clip-path="url(#p787fdf507e)" style="fill: #1f77b4"/>
   </g>
   <g id="patch_59">
    <path d="M 273.608909 303.64 
L 277.208727 303.64 
L 277.208727 296.207275 
L 273.608909 296.207275 
z
" clip-path="url(#p787fdf507e)" style="fill: #1f77b4"/>
   </g>
   <g id="patch_60">
    <path d="M 277.208727 303.64 
L 280.808545 303.64 
L 280.808545 295.612657 
L 277.208727 295.612657 
z
" clip-path="url(#p787fdf507e)" style="fill: #1f77b4"/>
   </g>
   <g id="patch_61">
    <path d="M 280.808545 303.64 
L 284.408364 303.64 
L 284.408364 296.471549 
L 280.808545 296.471549 
z
" clip-path="url(#p787fdf507e)" style="fill: #1f77b4"/>
   </g>
   <g id="patch_62">
    <path d="M 284.408364 303.64 
L 288.008182 303.64 
L 288.008182 295.876931 
L 284.408364 295.876931 
z
" clip-path="url(#p787fdf507e)" style="fill: #1f77b4"/>
   </g>
   <g id="patch_63">
    <path d="M 288.008182 303.64 
L 291.608 303.64 
L 291.608 295.843897 
L 288.008182 295.843897 
z
" clip-path="url(#p787fdf507e)" style="fill: #1f77b4"/>
   </g>
   <g id="patch_64">
    <path d="M 291.608 303.64 
L 295.207818 303.64 
L 295.207818 296.70279 
L 291.608 296.70279 
z
" clip-path="url(#p787fdf507e)" style="fill: #1f77b4"/>
   </g>
   <g id="patch_65">
    <path d="M 295.207818 303.64 
L 298.807636 303.64 
L 298.807636 295.546588 
L 295.207818 295.546588 
z
" clip-path="url(#p787fdf507e)" style="fill: #1f77b4"/>
   </g>
   <g id="patch_66">
    <path d="M 298.807636 303.64 
L 302.407455 303.64 
L 302.407455 297.066167 
L 298.807636 297.066167 
z
" clip-path="url(#p787fdf507e)" style="fill: #1f77b4"/>
   </g>
   <g id="patch_67">
    <path d="M 302.407455 303.64 
L 306.007273 303.64 
L 306.007273 297.099202 
L 302.407455 297.099202 
z
" clip-path="url(#p787fdf507e)" style="fill: #1f77b4"/>
   </g>
   <g id="patch_68">
    <path d="M 306.007273 303.64 
L 309.607091 303.64 
L 309.607091 296.438515 
L 306.007273 296.438515 
z
" clip-path="url(#p787fdf507e)" style="fill: #1f77b4"/>
   </g>
   <g id="patch_69">
    <path d="M 309.607091 303.64 
L 313.206909 303.64 
L 313.206909 295.976034 
L 309.607091 295.976034 
z
" clip-path="url(#p787fdf507e)" style="fill: #1f77b4"/>
   </g>
   <g id="patch_70">
    <path d="M 313.206909 303.64 
L 316.806727 303.64 
L 316.806727 296.240309 
L 313.206909 296.240309 
z
" clip-path="url(#p787fdf507e)" style="fill: #1f77b4"/>
   </g>
   <g id="patch_71">
    <path d="M 316.806727 303.64 
L 320.406545 303.64 
L 320.406545 296.867961 
L 316.806727 296.867961 
z
" clip-path="url(#p787fdf507e)" style="fill: #1f77b4"/>
   </g>
   <g id="patch_72">
    <path d="M 320.406545 303.64 
L 324.006364 303.64 
L 324.006364 296.967064 
L 320.406545 296.967064 
z
" clip-path="url(#p787fdf507e)" style="fill: #1f77b4"/>
   </g>
   <g id="patch_73">
    <path d="M 324.006364 303.64 
L 327.606182 303.64 
L 327.606182 296.801893 
L 324.006364 296.801893 
z
" clip-path="url(#p787fdf507e)" style="fill: #1f77b4"/>
   </g>
   <g id="patch_74">
    <path d="M 327.606182 303.64 
L 331.206 303.64 
L 331.206 297.033133 
L 327.606182 297.033133 
z
" clip-path="url(#p787fdf507e)" style="fill: #1f77b4"/>
   </g>
   <g id="patch_75">
    <path d="M 331.206 303.64 
L 334.805818 303.64 
L 334.805818 297.000099 
L 331.206 297.000099 
z
" clip-path="url(#p787fdf507e)" style="fill: #1f77b4"/>
   </g>
   <g id="patch_76">
    <path d="M 334.805818 303.64 
L 338.405636 303.64 
L 338.405636 297.46258 
L 334.805818 297.46258 
z
" clip-path="url(#p787fdf507e)" style="fill: #1f77b4"/>
   </g>
   <g id="patch_77">
    <path d="M 338.405636 303.64 
L 342.005455 303.64 
L 342.005455 297.033133 
L 338.405636 297.033133 
z
" clip-path="url(#p787fdf507e)" style="fill: #1f77b4"/>
   </g>
   <g id="patch_78">
    <path d="M 342.005455 303.64 
L 345.605273 303.64 
L 345.605273 298.420575 
L 342.005455 298.420575 
z
" clip-path="url(#p787fdf507e)" style="fill: #1f77b4"/>
   </g>
   <g id="patch_79">
    <path d="M 345.605273 303.64 
L 349.205091 303.64 
L 349.205091 297.825957 
L 345.605273 297.825957 
z
" clip-path="url(#p787fdf507e)" style="fill: #1f77b4"/>
   </g>
   <g id="patch_80">
    <path d="M 349.205091 303.64 
L 352.804909 303.64 
L 352.804909 298.717884 
L 349.205091 298.717884 
z
" clip-path="url(#p787fdf507e)" style="fill: #1f77b4"/>
   </g>
   <g id="patch_81">
    <path d="M 352.804909 303.64 
L 356.404727 303.64 
L 356.404727 298.156301 
L 352.804909 298.156301 
z
" clip-path="url(#p787fdf507e)" style="fill: #1f77b4"/>
   </g>
   <g id="patch_82">
    <path d="M 356.404727 303.64 
L 360.004545 303.64 
L 360.004545 297.561683 
L 356.404727 297.561683 
z
" clip-path="url(#p787fdf507e)" style="fill: #1f77b4"/>
   </g>
   <g id="patch_83">
    <path d="M 360.004545 303.64 
L 363.604364 303.64 
L 363.604364 298.288438 
L 360.004545 298.288438 
z
" clip-path="url(#p787fdf507e)" style="fill: #1f77b4"/>
   </g>
   <g id="patch_84">
    <path d="M 363.604364 303.64 
L 367.204182 303.64 
L 367.204182 297.825957 
L 363.604364 297.825957 
z
" clip-path="url(#p787fdf507e)" style="fill: #1f77b4"/>
   </g>
   <g id="patch_85">
    <path d="M 367.204182 303.64 
L 370.804 303.64 
L 370.804 299.213399 
L 367.204182 299.213399 
z
" clip-path="url(#p787fdf507e)" style="fill: #1f77b4"/>
   </g>
   <g id="patch_86">
    <path d="M 370.804 303.64 
L 374.403818 303.64 
L 374.403818 299.345537 
L 370.804 299.345537 
z
" clip-path="url(#p787fdf507e)" style="fill: #1f77b4"/>
   </g>
   <g id="patch_87">
    <path d="M 374.403818 303.64 
L 378.003636 303.64 
L 378.003636 298.982159 
L 374.403818 298.982159 
z
" clip-path="url(#p787fdf507e)" style="fill: #1f77b4"/>
   </g>
   <g id="patch_88">
    <path d="M 378.003636 303.64 
L 381.603455 303.64 
L 381.603455 299.345537 
L 378.003636 299.345537 
z
" clip-path="url(#p787fdf507e)" style="fill: #1f77b4"/>
   </g>
   <g id="patch_89">
    <path d="M 381.603455 303.64 
L 385.203273 303.64 
L 385.203273 300.039258 
L 381.603455 300.039258 
z
" clip-path="url(#p787fdf507e)" style="fill: #1f77b4"/>
   </g>
   <g id="patch_90">
    <path d="M 385.203273 303.64 
L 388.803091 303.64 
L 388.803091 299.345537 
L 385.203273 299.345537 
z
" clip-path="url(#p787fdf507e)" style="fill: #1f77b4"/>
   </g>
   <g id="patch_91">
    <path d="M 388.803091 303.64 
L 392.402909 303.64 
L 392.402909 299.345537 
L 388.803091 299.345537 
z
" clip-path="url(#p787fdf507e)" style="fill: #1f77b4"/>
   </g>
   <g id="patch_92">
    <path d="M 392.402909 303.64 
L 396.002727 303.64 
L 396.002727 299.510708 
L 392.402909 299.510708 
z
" clip-path="url(#p787fdf507e)" style="fill: #1f77b4"/>
   </g>
   <g id="patch_93">
    <path d="M 396.002727 303.64 
L 399.602545 303.64 
L 399.602545 300.303532 
L 396.002727 300.303532 
z
" clip-path="url(#p787fdf507e)" style="fill: #1f77b4"/>
   </g>
   <g id="patch_94">
    <path d="M 399.602545 303.64 
L 403.202364 303.64 
L 403.202364 300.66691 
L 399.602545 300.66691 
z
" clip-path="url(#p787fdf507e)" style="fill: #1f77b4"/>
   </g>
   <g id="patch_95">
    <path d="M 403.202364 303.64 
L 406.802182 303.64 
L 406.802182 300.699944 
L 403.202364 300.699944 
z
" clip-path="url(#p787fdf507e)" style="fill: #1f77b4"/>
   </g>
   <g id="patch_96">
    <path d="M 406.802182 303.64 
L 410.402 303.64 
L 410.402 301.393665 
L 406.802182 301.393665 
z
" clip-path="url(#p787fdf507e)" style="fill: #1f77b4"/>
   </g>
   <g id="patch_97">
    <path d="M 410.402 303.64 
L 414.001818 303.64 
L 414.001818 301.88918 
L 410.402 301.88918 
z
" clip-path="url(#p787fdf507e)" style="fill: #1f77b4"/>
   </g>
   <g id="patch_98">
    <path d="M 414.001818 303.64 
L 417.601636 303.64 
L 417.601636 302.087386 
L 414.001818 302.087386 
z
" clip-path="url(#p787fdf507e)" style="fill: #1f77b4"/>
   </g>
   <g id="patch_99">
    <path d="M 417.601636 303.64 
L 421.201455 303.64 
L 421.201455 302.351661 
L 417.601636 302.351661 
z
" clip-path="url(#p787fdf507e)" style="fill: #1f77b4"/>
   </g>
   <g id="patch_100">
    <path d="M 421.201455 303.64 
L 424.801273 303.64 
L 424.801273 302.450764 
L 421.201455 302.450764 
z
" clip-path="url(#p787fdf507e)" style="fill: #1f77b4"/>
   </g>
   <g id="patch_101">
    <path d="M 424.801273 303.64 
L 428.401091 303.64 
L 428.401091 303.045382 
L 424.801273 303.045382 
z
" clip-path="url(#p787fdf507e)" style="fill: #1f77b4"/>
   </g>
   <g id="patch_102">
    <path d="M 428.401091 303.64 
L 432.000909 303.64 
L 432.000909 302.715039 
L 428.401091 302.715039 
z
" clip-path="url(#p787fdf507e)" style="fill: #1f77b4"/>
   </g>
   <g id="matplotlib.axis_1">
    <g id="xtick_1">
     <g id="line2d_1">
      <defs>
       <path id="mc92453c791" d="M 0 0 
L 0 3.5 
" style="stroke: #000000; stroke-width: 0.8"/>
      </defs>
      <g>
       <use xlink:href="#mc92453c791" x="72.019091" y="303.64" style="stroke: #000000; stroke-width: 0.8"/>
      </g>
     </g>
     <g id="text_1">
      <!-- −80 -->
      <g transform="translate(61.466747 318.238437) scale(0.1 -0.1)">
       <defs>
        <path id="DejaVuSans-2212" d="M 678 2272 
L 4684 2272 
L 4684 1741 
L 678 1741 
L 678 2272 
z
" transform="scale(0.015625)"/>
        <path id="DejaVuSans-38" d="M 2034 2216 
Q 1584 2216 1326 1975 
Q 1069 1734 1069 1313 
Q 1069 891 1326 650 
Q 1584 409 2034 409 
Q 2484 409 2743 651 
Q 3003 894 3003 1313 
Q 3003 1734 2745 1975 
Q 2488 2216 2034 2216 
z
M 1403 2484 
Q 997 2584 770 2862 
Q 544 3141 544 3541 
Q 544 4100 942 4425 
Q 1341 4750 2034 4750 
Q 2731 4750 3128 4425 
Q 3525 4100 3525 3541 
Q 3525 3141 3298 2862 
Q 3072 2584 2669 2484 
Q 3125 2378 3379 2068 
Q 3634 1759 3634 1313 
Q 3634 634 3220 271 
Q 2806 -91 2034 -91 
Q 1263 -91 848 271 
Q 434 634 434 1313 
Q 434 1759 690 2068 
Q 947 2378 1403 2484 
z
M 1172 3481 
Q 1172 3119 1398 2916 
Q 1625 2713 2034 2713 
Q 2441 2713 2670 2916 
Q 2900 3119 2900 3481 
Q 2900 3844 2670 4047 
Q 2441 4250 2034 4250 
Q 1625 4250 1398 4047 
Q 1172 3844 1172 3481 
z
" transform="scale(0.015625)"/>
        <path id="DejaVuSans-30" d="M 2034 4250 
Q 1547 4250 1301 3770 
Q 1056 3291 1056 2328 
Q 1056 1369 1301 889 
Q 1547 409 2034 409 
Q 2525 409 2770 889 
Q 3016 1369 3016 2328 
Q 3016 3291 2770 3770 
Q 2525 4250 2034 4250 
z
M 2034 4750 
Q 2819 4750 3233 4129 
Q 3647 3509 3647 2328 
Q 3647 1150 3233 529 
Q 2819 -91 2034 -91 
Q 1250 -91 836 529 
Q 422 1150 422 2328 
Q 422 3509 836 4129 
Q 1250 4750 2034 4750 
z
" transform="scale(0.015625)"/>
       </defs>
       <use xlink:href="#DejaVuSans-2212"/>
       <use xlink:href="#DejaVuSans-38" x="83.789062"/>
       <use xlink:href="#DejaVuSans-30" x="147.412109"/>
      </g>
     </g>
    </g>
    <g id="xtick_2">
     <g id="line2d_2">
      <g>
       <use xlink:href="#mc92453c791" x="117.016816" y="303.64" style="stroke: #000000; stroke-width: 0.8"/>
      </g>
     </g>
     <g id="text_2">
      <!-- −70 -->
      <g transform="translate(106.464472 318.238437) scale(0.1 -0.1)">
       <defs>
        <path id="DejaVuSans-37" d="M 525 4666 
L 3525 4666 
L 3525 4397 
L 1831 0 
L 1172 0 
L 2766 4134 
L 525 4134 
L 525 4666 
z
" transform="scale(0.015625)"/>
       </defs>
       <use xlink:href="#DejaVuSans-2212"/>
       <use xlink:href="#DejaVuSans-37" x="83.789062"/>
       <use xlink:href="#DejaVuSans-30" x="147.412109"/>
      </g>
     </g>
    </g>
    <g id="xtick_3">
     <g id="line2d_3">
      <g>
       <use xlink:href="#mc92453c791" x="162.014541" y="303.64" style="stroke: #000000; stroke-width: 0.8"/>
      </g>
     </g>
     <g id="text_3">
      <!-- −60 -->
      <g transform="translate(151.462197 318.238437) scale(0.1 -0.1)">
       <defs>
        <path id="DejaVuSans-36" d="M 2113 2584 
Q 1688 2584 1439 2293 
Q 1191 2003 1191 1497 
Q 1191 994 1439 701 
Q 1688 409 2113 409 
Q 2538 409 2786 701 
Q 3034 994 3034 1497 
Q 3034 2003 2786 2293 
Q 2538 2584 2113 2584 
z
M 3366 4563 
L 3366 3988 
Q 3128 4100 2886 4159 
Q 2644 4219 2406 4219 
Q 1781 4219 1451 3797 
Q 1122 3375 1075 2522 
Q 1259 2794 1537 2939 
Q 1816 3084 2150 3084 
Q 2853 3084 3261 2657 
Q 3669 2231 3669 1497 
Q 3669 778 3244 343 
Q 2819 -91 2113 -91 
Q 1303 -91 875 529 
Q 447 1150 447 2328 
Q 447 3434 972 4092 
Q 1497 4750 2381 4750 
Q 2619 4750 2861 4703 
Q 3103 4656 3366 4563 
z
" transform="scale(0.015625)"/>
       </defs>
       <use xlink:href="#DejaVuSans-2212"/>
       <use xlink:href="#DejaVuSans-36" x="83.789062"/>
       <use xlink:href="#DejaVuSans-30" x="147.412109"/>
      </g>
     </g>
    </g>
    <g id="xtick_4">
     <g id="line2d_4">
      <g>
       <use xlink:href="#mc92453c791" x="207.012266" y="303.64" style="stroke: #000000; stroke-width: 0.8"/>
      </g>
     </g>
     <g id="text_4">
      <!-- −50 -->
      <g transform="translate(196.459923 318.238437) scale(0.1 -0.1)">
       <defs>
        <path id="DejaVuSans-35" d="M 691 4666 
L 3169 4666 
L 3169 4134 
L 1269 4134 
L 1269 2991 
Q 1406 3038 1543 3061 
Q 1681 3084 1819 3084 
Q 2600 3084 3056 2656 
Q 3513 2228 3513 1497 
Q 3513 744 3044 326 
Q 2575 -91 1722 -91 
Q 1428 -91 1123 -41 
Q 819 9 494 109 
L 494 744 
Q 775 591 1075 516 
Q 1375 441 1709 441 
Q 2250 441 2565 725 
Q 2881 1009 2881 1497 
Q 2881 1984 2565 2268 
Q 2250 2553 1709 2553 
Q 1456 2553 1204 2497 
Q 953 2441 691 2322 
L 691 4666 
z
" transform="scale(0.015625)"/>
       </defs>
       <use xlink:href="#DejaVuSans-2212"/>
       <use xlink:href="#DejaVuSans-35" x="83.789062"/>
       <use xlink:href="#DejaVuSans-30" x="147.412109"/>
      </g>
     </g>
    </g>
    <g id="xtick_5">
     <g id="line2d_5">
      <g>
       <use xlink:href="#mc92453c791" x="252.009991" y="303.64" style="stroke: #000000; stroke-width: 0.8"/>
      </g>
     </g>
     <g id="text_5">
      <!-- −40 -->
      <g transform="translate(241.457648 318.238437) scale(0.1 -0.1)">
       <defs>
        <path id="DejaVuSans-34" d="M 2419 4116 
L 825 1625 
L 2419 1625 
L 2419 4116 
z
M 2253 4666 
L 3047 4666 
L 3047 1625 
L 3713 1625 
L 3713 1100 
L 3047 1100 
L 3047 0 
L 2419 0 
L 2419 1100 
L 313 1100 
L 313 1709 
L 2253 4666 
z
" transform="scale(0.015625)"/>
       </defs>
       <use xlink:href="#DejaVuSans-2212"/>
       <use xlink:href="#DejaVuSans-34" x="83.789062"/>
       <use xlink:href="#DejaVuSans-30" x="147.412109"/>
      </g>
     </g>
    </g>
    <g id="xtick_6">
     <g id="line2d_6">
      <g>
       <use xlink:href="#mc92453c791" x="297.007717" y="303.64" style="stroke: #000000; stroke-width: 0.8"/>
      </g>
     </g>
     <g id="text_6">
      <!-- −30 -->
      <g transform="translate(286.455373 318.238437) scale(0.1 -0.1)">
       <defs>
        <path id="DejaVuSans-33" d="M 2597 2516 
Q 3050 2419 3304 2112 
Q 3559 1806 3559 1356 
Q 3559 666 3084 287 
Q 2609 -91 1734 -91 
Q 1441 -91 1130 -33 
Q 819 25 488 141 
L 488 750 
Q 750 597 1062 519 
Q 1375 441 1716 441 
Q 2309 441 2620 675 
Q 2931 909 2931 1356 
Q 2931 1769 2642 2001 
Q 2353 2234 1838 2234 
L 1294 2234 
L 1294 2753 
L 1863 2753 
Q 2328 2753 2575 2939 
Q 2822 3125 2822 3475 
Q 2822 3834 2567 4026 
Q 2313 4219 1838 4219 
Q 1578 4219 1281 4162 
Q 984 4106 628 3988 
L 628 4550 
Q 988 4650 1302 4700 
Q 1616 4750 1894 4750 
Q 2613 4750 3031 4423 
Q 3450 4097 3450 3541 
Q 3450 3153 3228 2886 
Q 3006 2619 2597 2516 
z
" transform="scale(0.015625)"/>
       </defs>
       <use xlink:href="#DejaVuSans-2212"/>
       <use xlink:href="#DejaVuSans-33" x="83.789062"/>
       <use xlink:href="#DejaVuSans-30" x="147.412109"/>
      </g>
     </g>
    </g>
    <g id="xtick_7">
     <g id="line2d_7">
      <g>
       <use xlink:href="#mc92453c791" x="342.005442" y="303.64" style="stroke: #000000; stroke-width: 0.8"/>
      </g>
     </g>
     <g id="text_7">
      <!-- −20 -->
      <g transform="translate(331.453098 318.238437) scale(0.1 -0.1)">
       <defs>
        <path id="DejaVuSans-32" d="M 1228 531 
L 3431 531 
L 3431 0 
L 469 0 
L 469 531 
Q 828 903 1448 1529 
Q 2069 2156 2228 2338 
Q 2531 2678 2651 2914 
Q 2772 3150 2772 3378 
Q 2772 3750 2511 3984 
Q 2250 4219 1831 4219 
Q 1534 4219 1204 4116 
Q 875 4013 500 3803 
L 500 4441 
Q 881 4594 1212 4672 
Q 1544 4750 1819 4750 
Q 2544 4750 2975 4387 
Q 3406 4025 3406 3419 
Q 3406 3131 3298 2873 
Q 3191 2616 2906 2266 
Q 2828 2175 2409 1742 
Q 1991 1309 1228 531 
z
" transform="scale(0.015625)"/>
       </defs>
       <use xlink:href="#DejaVuSans-2212"/>
       <use xlink:href="#DejaVuSans-32" x="83.789062"/>
       <use xlink:href="#DejaVuSans-30" x="147.412109"/>
      </g>
     </g>
    </g>
    <g id="xtick_8">
     <g id="line2d_8">
      <g>
       <use xlink:href="#mc92453c791" x="387.003167" y="303.64" style="stroke: #000000; stroke-width: 0.8"/>
      </g>
     </g>
     <g id="text_8">
      <!-- −10 -->
      <g transform="translate(376.450823 318.238437) scale(0.1 -0.1)">
       <defs>
        <path id="DejaVuSans-31" d="M 794 531 
L 1825 531 
L 1825 4091 
L 703 3866 
L 703 4441 
L 1819 4666 
L 2450 4666 
L 2450 531 
L 3481 531 
L 3481 0 
L 794 0 
L 794 531 
z
" transform="scale(0.015625)"/>
       </defs>
       <use xlink:href="#DejaVuSans-2212"/>
       <use xlink:href="#DejaVuSans-31" x="83.789062"/>
       <use xlink:href="#DejaVuSans-30" x="147.412109"/>
      </g>
     </g>
    </g>
    <g id="xtick_9">
     <g id="line2d_9">
      <g>
       <use xlink:href="#mc92453c791" x="432.000892" y="303.64" style="stroke: #000000; stroke-width: 0.8"/>
      </g>
     </g>
     <g id="text_9">
      <!-- 0 -->
      <g transform="translate(428.819642 318.238437) scale(0.1 -0.1)">
       <use xlink:href="#DejaVuSans-30"/>
      </g>
     </g>
    </g>
    <g id="text_10">
     <!-- Input Pixel Value -->
     <g transform="translate(210.593594 331.916562) scale(0.1 -0.1)">
      <defs>
       <path id="DejaVuSans-49" d="M 628 4666 
L 1259 4666 
L 1259 0 
L 628 0 
L 628 4666 
z
" transform="scale(0.015625)"/>
       <path id="DejaVuSans-6e" d="M 3513 2113 
L 3513 0 
L 2938 0 
L 2938 2094 
Q 2938 2591 2744 2837 
Q 2550 3084 2163 3084 
Q 1697 3084 1428 2787 
Q 1159 2491 1159 1978 
L 1159 0 
L 581 0 
L 581 3500 
L 1159 3500 
L 1159 2956 
Q 1366 3272 1645 3428 
Q 1925 3584 2291 3584 
Q 2894 3584 3203 3211 
Q 3513 2838 3513 2113 
z
" transform="scale(0.015625)"/>
       <path id="DejaVuSans-70" d="M 1159 525 
L 1159 -1331 
L 581 -1331 
L 581 3500 
L 1159 3500 
L 1159 2969 
Q 1341 3281 1617 3432 
Q 1894 3584 2278 3584 
Q 2916 3584 3314 3078 
Q 3713 2572 3713 1747 
Q 3713 922 3314 415 
Q 2916 -91 2278 -91 
Q 1894 -91 1617 61 
Q 1341 213 1159 525 
z
M 3116 1747 
Q 3116 2381 2855 2742 
Q 2594 3103 2138 3103 
Q 1681 3103 1420 2742 
Q 1159 2381 1159 1747 
Q 1159 1113 1420 752 
Q 1681 391 2138 391 
Q 2594 391 2855 752 
Q 3116 1113 3116 1747 
z
" transform="scale(0.015625)"/>
       <path id="DejaVuSans-75" d="M 544 1381 
L 544 3500 
L 1119 3500 
L 1119 1403 
Q 1119 906 1312 657 
Q 1506 409 1894 409 
Q 2359 409 2629 706 
Q 2900 1003 2900 1516 
L 2900 3500 
L 3475 3500 
L 3475 0 
L 2900 0 
L 2900 538 
Q 2691 219 2414 64 
Q 2138 -91 1772 -91 
Q 1169 -91 856 284 
Q 544 659 544 1381 
z
M 1991 3584 
L 1991 3584 
z
" transform="scale(0.015625)"/>
       <path id="DejaVuSans-74" d="M 1172 4494 
L 1172 3500 
L 2356 3500 
L 2356 3053 
L 1172 3053 
L 1172 1153 
Q 1172 725 1289 603 
Q 1406 481 1766 481 
L 2356 481 
L 2356 0 
L 1766 0 
Q 1100 0 847 248 
Q 594 497 594 1153 
L 594 3053 
L 172 3053 
L 172 3500 
L 594 3500 
L 594 4494 
L 1172 4494 
z
" transform="scale(0.015625)"/>
       <path id="DejaVuSans-20" transform="scale(0.015625)"/>
       <path id="DejaVuSans-50" d="M 1259 4147 
L 1259 2394 
L 2053 2394 
Q 2494 2394 2734 2622 
Q 2975 2850 2975 3272 
Q 2975 3691 2734 3919 
Q 2494 4147 2053 4147 
L 1259 4147 
z
M 628 4666 
L 2053 4666 
Q 2838 4666 3239 4311 
Q 3641 3956 3641 3272 
Q 3641 2581 3239 2228 
Q 2838 1875 2053 1875 
L 1259 1875 
L 1259 0 
L 628 0 
L 628 4666 
z
" transform="scale(0.015625)"/>
       <path id="DejaVuSans-69" d="M 603 3500 
L 1178 3500 
L 1178 0 
L 603 0 
L 603 3500 
z
M 603 4863 
L 1178 4863 
L 1178 4134 
L 603 4134 
L 603 4863 
z
" transform="scale(0.015625)"/>
       <path id="DejaVuSans-78" d="M 3513 3500 
L 2247 1797 
L 3578 0 
L 2900 0 
L 1881 1375 
L 863 0 
L 184 0 
L 1544 1831 
L 300 3500 
L 978 3500 
L 1906 2253 
L 2834 3500 
L 3513 3500 
z
" transform="scale(0.015625)"/>
       <path id="DejaVuSans-65" d="M 3597 1894 
L 3597 1613 
L 953 1613 
Q 991 1019 1311 708 
Q 1631 397 2203 397 
Q 2534 397 2845 478 
Q 3156 559 3463 722 
L 3463 178 
Q 3153 47 2828 -22 
Q 2503 -91 2169 -91 
Q 1331 -91 842 396 
Q 353 884 353 1716 
Q 353 2575 817 3079 
Q 1281 3584 2069 3584 
Q 2775 3584 3186 3129 
Q 3597 2675 3597 1894 
z
M 3022 2063 
Q 3016 2534 2758 2815 
Q 2500 3097 2075 3097 
Q 1594 3097 1305 2825 
Q 1016 2553 972 2059 
L 3022 2063 
z
" transform="scale(0.015625)"/>
       <path id="DejaVuSans-6c" d="M 603 4863 
L 1178 4863 
L 1178 0 
L 603 0 
L 603 4863 
z
" transform="scale(0.015625)"/>
       <path id="DejaVuSans-56" d="M 1831 0 
L 50 4666 
L 709 4666 
L 2188 738 
L 3669 4666 
L 4325 4666 
L 2547 0 
L 1831 0 
z
" transform="scale(0.015625)"/>
       <path id="DejaVuSans-61" d="M 2194 1759 
Q 1497 1759 1228 1600 
Q 959 1441 959 1056 
Q 959 750 1161 570 
Q 1363 391 1709 391 
Q 2188 391 2477 730 
Q 2766 1069 2766 1631 
L 2766 1759 
L 2194 1759 
z
M 3341 1997 
L 3341 0 
L 2766 0 
L 2766 531 
Q 2569 213 2275 61 
Q 1981 -91 1556 -91 
Q 1019 -91 701 211 
Q 384 513 384 1019 
Q 384 1609 779 1909 
Q 1175 2209 1959 2209 
L 2766 2209 
L 2766 2266 
Q 2766 2663 2505 2880 
Q 2244 3097 1772 3097 
Q 1472 3097 1187 3025 
Q 903 2953 641 2809 
L 641 3341 
Q 956 3463 1253 3523 
Q 1550 3584 1831 3584 
Q 2591 3584 2966 3190 
Q 3341 2797 3341 1997 
z
" transform="scale(0.015625)"/>
      </defs>
      <use xlink:href="#DejaVuSans-49"/>
      <use xlink:href="#DejaVuSans-6e" x="29.492188"/>
      <use xlink:href="#DejaVuSans-70" x="92.871094"/>
      <use xlink:href="#DejaVuSans-75" x="156.347656"/>
      <use xlink:href="#DejaVuSans-74" x="219.726562"/>
      <use xlink:href="#DejaVuSans-20" x="258.935547"/>
      <use xlink:href="#DejaVuSans-50" x="290.722656"/>
      <use xlink:href="#DejaVuSans-69" x="348.775391"/>
      <use xlink:href="#DejaVuSans-78" x="376.558594"/>
      <use xlink:href="#DejaVuSans-65" x="432.613281"/>
      <use xlink:href="#DejaVuSans-6c" x="494.136719"/>
      <use xlink:href="#DejaVuSans-20" x="521.919922"/>
      <use xlink:href="#DejaVuSans-56" x="553.707031"/>
      <use xlink:href="#DejaVuSans-61" x="614.365234"/>
      <use xlink:href="#DejaVuSans-6c" x="675.644531"/>
      <use xlink:href="#DejaVuSans-75" x="703.427734"/>
      <use xlink:href="#DejaVuSans-65" x="766.806641"/>
     </g>
    </g>
   </g>
   <g id="matplotlib.axis_2">
    <g id="ytick_1">
     <g id="line2d_10">
      <defs>
       <path id="m4b9d8b82e0" d="M 0 0 
L -3.5 0 
" style="stroke: #000000; stroke-width: 0.8"/>
      </defs>
      <g>
       <use xlink:href="#m4b9d8b82e0" x="54.02" y="303.64" style="stroke: #000000; stroke-width: 0.8"/>
      </g>
     </g>
     <g id="text_11">
      <!-- 0.00 -->
      <g transform="translate(24.754375 307.439219) scale(0.1 -0.1)">
       <defs>
        <path id="DejaVuSans-2e" d="M 684 794 
L 1344 794 
L 1344 0 
L 684 0 
L 684 794 
z
" transform="scale(0.015625)"/>
       </defs>
       <use xlink:href="#DejaVuSans-30"/>
       <use xlink:href="#DejaVuSans-2e" x="63.623047"/>
       <use xlink:href="#DejaVuSans-30" x="95.410156"/>
       <use xlink:href="#DejaVuSans-30" x="159.033203"/>
      </g>
     </g>
    </g>
    <g id="ytick_2">
     <g id="line2d_11">
      <g>
       <use xlink:href="#m4b9d8b82e0" x="54.02" y="246.345248" style="stroke: #000000; stroke-width: 0.8"/>
      </g>
     </g>
     <g id="text_12">
      <!-- 0.05 -->
      <g transform="translate(24.754375 250.144467) scale(0.1 -0.1)">
       <use xlink:href="#DejaVuSans-30"/>
       <use xlink:href="#DejaVuSans-2e" x="63.623047"/>
       <use xlink:href="#DejaVuSans-30" x="95.410156"/>
       <use xlink:href="#DejaVuSans-35" x="159.033203"/>
      </g>
     </g>
    </g>
    <g id="ytick_3">
     <g id="line2d_12">
      <g>
       <use xlink:href="#m4b9d8b82e0" x="54.02" y="189.050496" style="stroke: #000000; stroke-width: 0.8"/>
      </g>
     </g>
     <g id="text_13">
      <!-- 0.10 -->
      <g transform="translate(24.754375 192.849715) scale(0.1 -0.1)">
       <use xlink:href="#DejaVuSans-30"/>
       <use xlink:href="#DejaVuSans-2e" x="63.623047"/>
       <use xlink:href="#DejaVuSans-31" x="95.410156"/>
       <use xlink:href="#DejaVuSans-30" x="159.033203"/>
      </g>
     </g>
    </g>
    <g id="ytick_4">
     <g id="line2d_13">
      <g>
       <use xlink:href="#m4b9d8b82e0" x="54.02" y="131.755744" style="stroke: #000000; stroke-width: 0.8"/>
      </g>
     </g>
     <g id="text_14">
      <!-- 0.15 -->
      <g transform="translate(24.754375 135.554963) scale(0.1 -0.1)">
       <use xlink:href="#DejaVuSans-30"/>
       <use xlink:href="#DejaVuSans-2e" x="63.623047"/>
       <use xlink:href="#DejaVuSans-31" x="95.410156"/>
       <use xlink:href="#DejaVuSans-35" x="159.033203"/>
      </g>
     </g>
    </g>
    <g id="ytick_5">
     <g id="line2d_14">
      <g>
       <use xlink:href="#m4b9d8b82e0" x="54.02" y="74.460992" style="stroke: #000000; stroke-width: 0.8"/>
      </g>
     </g>
     <g id="text_15">
      <!-- 0.20 -->
      <g transform="translate(24.754375 78.260211) scale(0.1 -0.1)">
       <use xlink:href="#DejaVuSans-30"/>
       <use xlink:href="#DejaVuSans-2e" x="63.623047"/>
       <use xlink:href="#DejaVuSans-32" x="95.410156"/>
       <use xlink:href="#DejaVuSans-30" x="159.033203"/>
      </g>
     </g>
    </g>
    <g id="text_16">
     <!-- Probability Density -->
     <g transform="translate(18.674688 212.286562) rotate(-90) scale(0.1 -0.1)">
      <defs>
       <path id="DejaVuSans-72" d="M 2631 2963 
Q 2534 3019 2420 3045 
Q 2306 3072 2169 3072 
Q 1681 3072 1420 2755 
Q 1159 2438 1159 1844 
L 1159 0 
L 581 0 
L 581 3500 
L 1159 3500 
L 1159 2956 
Q 1341 3275 1631 3429 
Q 1922 3584 2338 3584 
Q 2397 3584 2469 3576 
Q 2541 3569 2628 3553 
L 2631 2963 
z
" transform="scale(0.015625)"/>
       <path id="DejaVuSans-6f" d="M 1959 3097 
Q 1497 3097 1228 2736 
Q 959 2375 959 1747 
Q 959 1119 1226 758 
Q 1494 397 1959 397 
Q 2419 397 2687 759 
Q 2956 1122 2956 1747 
Q 2956 2369 2687 2733 
Q 2419 3097 1959 3097 
z
M 1959 3584 
Q 2709 3584 3137 3096 
Q 3566 2609 3566 1747 
Q 3566 888 3137 398 
Q 2709 -91 1959 -91 
Q 1206 -91 779 398 
Q 353 888 353 1747 
Q 353 2609 779 3096 
Q 1206 3584 1959 3584 
z
" transform="scale(0.015625)"/>
       <path id="DejaVuSans-62" d="M 3116 1747 
Q 3116 2381 2855 2742 
Q 2594 3103 2138 3103 
Q 1681 3103 1420 2742 
Q 1159 2381 1159 1747 
Q 1159 1113 1420 752 
Q 1681 391 2138 391 
Q 2594 391 2855 752 
Q 3116 1113 3116 1747 
z
M 1159 2969 
Q 1341 3281 1617 3432 
Q 1894 3584 2278 3584 
Q 2916 3584 3314 3078 
Q 3713 2572 3713 1747 
Q 3713 922 3314 415 
Q 2916 -91 2278 -91 
Q 1894 -91 1617 61 
Q 1341 213 1159 525 
L 1159 0 
L 581 0 
L 581 4863 
L 1159 4863 
L 1159 2969 
z
" transform="scale(0.015625)"/>
       <path id="DejaVuSans-79" d="M 2059 -325 
Q 1816 -950 1584 -1140 
Q 1353 -1331 966 -1331 
L 506 -1331 
L 506 -850 
L 844 -850 
Q 1081 -850 1212 -737 
Q 1344 -625 1503 -206 
L 1606 56 
L 191 3500 
L 800 3500 
L 1894 763 
L 2988 3500 
L 3597 3500 
L 2059 -325 
z
" transform="scale(0.015625)"/>
       <path id="DejaVuSans-44" d="M 1259 4147 
L 1259 519 
L 2022 519 
Q 2988 519 3436 956 
Q 3884 1394 3884 2338 
Q 3884 3275 3436 3711 
Q 2988 4147 2022 4147 
L 1259 4147 
z
M 628 4666 
L 1925 4666 
Q 3281 4666 3915 4102 
Q 4550 3538 4550 2338 
Q 4550 1131 3912 565 
Q 3275 0 1925 0 
L 628 0 
L 628 4666 
z
" transform="scale(0.015625)"/>
       <path id="DejaVuSans-73" d="M 2834 3397 
L 2834 2853 
Q 2591 2978 2328 3040 
Q 2066 3103 1784 3103 
Q 1356 3103 1142 2972 
Q 928 2841 928 2578 
Q 928 2378 1081 2264 
Q 1234 2150 1697 2047 
L 1894 2003 
Q 2506 1872 2764 1633 
Q 3022 1394 3022 966 
Q 3022 478 2636 193 
Q 2250 -91 1575 -91 
Q 1294 -91 989 -36 
Q 684 19 347 128 
L 347 722 
Q 666 556 975 473 
Q 1284 391 1588 391 
Q 1994 391 2212 530 
Q 2431 669 2431 922 
Q 2431 1156 2273 1281 
Q 2116 1406 1581 1522 
L 1381 1569 
Q 847 1681 609 1914 
Q 372 2147 372 2553 
Q 372 3047 722 3315 
Q 1072 3584 1716 3584 
Q 2034 3584 2315 3537 
Q 2597 3491 2834 3397 
z
" transform="scale(0.015625)"/>
      </defs>
      <use xlink:href="#DejaVuSans-50"/>
      <use xlink:href="#DejaVuSans-72" x="58.552734"/>
      <use xlink:href="#DejaVuSans-6f" x="97.416016"/>
      <use xlink:href="#DejaVuSans-62" x="158.597656"/>
      <use xlink:href="#DejaVuSans-61" x="222.074219"/>
      <use xlink:href="#DejaVuSans-62" x="283.353516"/>
      <use xlink:href="#DejaVuSans-69" x="346.830078"/>
      <use xlink:href="#DejaVuSans-6c" x="374.613281"/>
      <use xlink:href="#DejaVuSans-69" x="402.396484"/>
      <use xlink:href="#DejaVuSans-74" x="430.179688"/>
      <use xlink:href="#DejaVuSans-79" x="469.388672"/>
      <use xlink:href="#DejaVuSans-20" x="528.568359"/>
      <use xlink:href="#DejaVuSans-44" x="560.355469"/>
      <use xlink:href="#DejaVuSans-65" x="637.357422"/>
      <use xlink:href="#DejaVuSans-6e" x="698.880859"/>
      <use xlink:href="#DejaVuSans-73" x="762.259766"/>
      <use xlink:href="#DejaVuSans-69" x="814.359375"/>
      <use xlink:href="#DejaVuSans-74" x="842.142578"/>
      <use xlink:href="#DejaVuSans-79" x="881.351562"/>
     </g>
    </g>
   </g>
   <g id="patch_103">
    <path d="M 54.02 303.64 
L 54.02 26.88 
" style="fill: none; stroke: #000000; stroke-width: 0.8; stroke-linejoin: miter; stroke-linecap: square"/>
   </g>
   <g id="patch_104">
    <path d="M 450 303.64 
L 450 26.88 
" style="fill: none; stroke: #000000; stroke-width: 0.8; stroke-linejoin: miter; stroke-linecap: square"/>
   </g>
   <g id="patch_105">
    <path d="M 54.02 303.64 
L 450 303.64 
" style="fill: none; stroke: #000000; stroke-width: 0.8; stroke-linejoin: miter; stroke-linecap: square"/>
   </g>
   <g id="patch_106">
    <path d="M 54.02 26.88 
L 450 26.88 
" style="fill: none; stroke: #000000; stroke-width: 0.8; stroke-linejoin: miter; stroke-linecap: square"/>
   </g>
   <g id="text_17">
    <!-- Histogram of the spectrum -->
    <g transform="translate(171.143125 20.88) scale(0.12 -0.12)">
     <defs>
      <path id="DejaVuSans-48" d="M 628 4666 
L 1259 4666 
L 1259 2753 
L 3553 2753 
L 3553 4666 
L 4184 4666 
L 4184 0 
L 3553 0 
L 3553 2222 
L 1259 2222 
L 1259 0 
L 628 0 
L 628 4666 
z
" transform="scale(0.015625)"/>
      <path id="DejaVuSans-67" d="M 2906 1791 
Q 2906 2416 2648 2759 
Q 2391 3103 1925 3103 
Q 1463 3103 1205 2759 
Q 947 2416 947 1791 
Q 947 1169 1205 825 
Q 1463 481 1925 481 
Q 2391 481 2648 825 
Q 2906 1169 2906 1791 
z
M 3481 434 
Q 3481 -459 3084 -895 
Q 2688 -1331 1869 -1331 
Q 1566 -1331 1297 -1286 
Q 1028 -1241 775 -1147 
L 775 -588 
Q 1028 -725 1275 -790 
Q 1522 -856 1778 -856 
Q 2344 -856 2625 -561 
Q 2906 -266 2906 331 
L 2906 616 
Q 2728 306 2450 153 
Q 2172 0 1784 0 
Q 1141 0 747 490 
Q 353 981 353 1791 
Q 353 2603 747 3093 
Q 1141 3584 1784 3584 
Q 2172 3584 2450 3431 
Q 2728 3278 2906 2969 
L 2906 3500 
L 3481 3500 
L 3481 434 
z
" transform="scale(0.015625)"/>
      <path id="DejaVuSans-6d" d="M 3328 2828 
Q 3544 3216 3844 3400 
Q 4144 3584 4550 3584 
Q 5097 3584 5394 3201 
Q 5691 2819 5691 2113 
L 5691 0 
L 5113 0 
L 5113 2094 
Q 5113 2597 4934 2840 
Q 4756 3084 4391 3084 
Q 3944 3084 3684 2787 
Q 3425 2491 3425 1978 
L 3425 0 
L 2847 0 
L 2847 2094 
Q 2847 2600 2669 2842 
Q 2491 3084 2119 3084 
Q 1678 3084 1418 2786 
Q 1159 2488 1159 1978 
L 1159 0 
L 581 0 
L 581 3500 
L 1159 3500 
L 1159 2956 
Q 1356 3278 1631 3431 
Q 1906 3584 2284 3584 
Q 2666 3584 2933 3390 
Q 3200 3197 3328 2828 
z
" transform="scale(0.015625)"/>
      <path id="DejaVuSans-66" d="M 2375 4863 
L 2375 4384 
L 1825 4384 
Q 1516 4384 1395 4259 
Q 1275 4134 1275 3809 
L 1275 3500 
L 2222 3500 
L 2222 3053 
L 1275 3053 
L 1275 0 
L 697 0 
L 697 3053 
L 147 3053 
L 147 3500 
L 697 3500 
L 697 3744 
Q 697 4328 969 4595 
Q 1241 4863 1831 4863 
L 2375 4863 
z
" transform="scale(0.015625)"/>
      <path id="DejaVuSans-68" d="M 3513 2113 
L 3513 0 
L 2938 0 
L 2938 2094 
Q 2938 2591 2744 2837 
Q 2550 3084 2163 3084 
Q 1697 3084 1428 2787 
Q 1159 2491 1159 1978 
L 1159 0 
L 581 0 
L 581 4863 
L 1159 4863 
L 1159 2956 
Q 1366 3272 1645 3428 
Q 1925 3584 2291 3584 
Q 2894 3584 3203 3211 
Q 3513 2838 3513 2113 
z
" transform="scale(0.015625)"/>
      <path id="DejaVuSans-63" d="M 3122 3366 
L 3122 2828 
Q 2878 2963 2633 3030 
Q 2388 3097 2138 3097 
Q 1578 3097 1268 2742 
Q 959 2388 959 1747 
Q 959 1106 1268 751 
Q 1578 397 2138 397 
Q 2388 397 2633 464 
Q 2878 531 3122 666 
L 3122 134 
Q 2881 22 2623 -34 
Q 2366 -91 2075 -91 
Q 1284 -91 818 406 
Q 353 903 353 1747 
Q 353 2603 823 3093 
Q 1294 3584 2113 3584 
Q 2378 3584 2631 3529 
Q 2884 3475 3122 3366 
z
" transform="scale(0.015625)"/>
     </defs>
     <use xlink:href="#DejaVuSans-48"/>
     <use xlink:href="#DejaVuSans-69" x="75.195312"/>
     <use xlink:href="#DejaVuSans-73" x="102.978516"/>
     <use xlink:href="#DejaVuSans-74" x="155.078125"/>
     <use xlink:href="#DejaVuSans-6f" x="194.287109"/>
     <use xlink:href="#DejaVuSans-67" x="255.46875"/>
     <use xlink:href="#DejaVuSans-72" x="318.945312"/>
     <use xlink:href="#DejaVuSans-61" x="360.058594"/>
     <use xlink:href="#DejaVuSans-6d" x="421.337891"/>
     <use xlink:href="#DejaVuSans-20" x="518.75"/>
     <use xlink:href="#DejaVuSans-6f" x="550.537109"/>
     <use xlink:href="#DejaVuSans-66" x="611.71875"/>
     <use xlink:href="#DejaVuSans-20" x="646.923828"/>
     <use xlink:href="#DejaVuSans-74" x="678.710938"/>
     <use xlink:href="#DejaVuSans-68" x="717.919922"/>
     <use xlink:href="#DejaVuSans-65" x="781.298828"/>
     <use xlink:href="#DejaVuSans-20" x="842.822266"/>
     <use xlink:href="#DejaVuSans-73" x="874.609375"/>
     <use xlink:href="#DejaVuSans-70" x="926.708984"/>
     <use xlink:href="#DejaVuSans-65" x="990.185547"/>
     <use xlink:href="#DejaVuSans-63" x="1051.708984"/>
     <use xlink:href="#DejaVuSans-74" x="1106.689453"/>
     <use xlink:href="#DejaVuSans-72" x="1145.898438"/>
     <use xlink:href="#DejaVuSans-75" x="1187.011719"/>
     <use xlink:href="#DejaVuSans-6d" x="1250.390625"/>
    </g>
   </g>
  </g>
 </g>
 <defs>
  <clipPath id="p787fdf507e">
   <rect x="54.02" y="26.88" width="395.98" height="276.76"/>
  </clipPath>
 </defs>
</svg>
