<?xml version="1.0" encoding="utf-8" standalone="no"?>
<!DOCTYPE svg PUBLIC "-//W3C//DTD SVG 1.1//EN"
  "http://www.w3.org/Graphics/SVG/1.1/DTD/svg11.dtd">
<svg xmlns:xlink="http://www.w3.org/1999/xlink" width="460.8pt" height="345.6pt" viewBox="0 0 460.8 345.6" xmlns="http://www.w3.org/2000/svg" version="1.1">
 <metadata>
  <rdf:RDF xmlns:dc="http://purl.org/dc/elements/1.1/" xmlns:cc="http://creativecommons.org/ns#" xmlns:rdf="http://www.w3.org/1999/02/22-rdf-syntax-ns#">
   <cc:Work>
    <dc:type rdf:resource="http://purl.org/dc/dcmitype/StillImage"/>
    <dc:date>2022-12-03T10:23:35.271307</dc:date>
    <dc:format>image/svg+xml</dc:format>
    <dc:creator>
     <cc:Agent>
      <dc:title>Matplotlib v3.5.1, https://matplotlib.org/</dc:title>
     </cc:Agent>
    </dc:creator>
   </cc:Work>
  </rdf:RDF>
 </metadata>
 <defs>
  <style type="text/css">*{stroke-linejoin: round; stroke-linecap: butt}</style>
 </defs>
 <g id="figure_1">
  <g id="patch_1">
   <path d="M 0 345.6 
L 460.8 345.6 
L 460.8 0 
L 0 0 
z
" style="fill: #ffffff"/>
  </g>
  <g id="axes_1">
   <g id="patch_2">
    <path d="M 57.6 162.432 
L 414.72 162.432 
L 414.72 41.472 
L 57.6 41.472 
z
" style="fill: #ffffff"/>
   </g>
   <g id="matplotlib.axis_1">
    <g id="xtick_1">
     <g id="line2d_1">
      <defs>
       <path id="me411d48952" d="M 0 0 
L 0 3.5 
" style="stroke: #000000; stroke-width: 0.8"/>
      </defs>
      <g>
       <use xlink:href="#me411d48952" x="73.832727" y="162.432" style="stroke: #000000; stroke-width: 0.8"/>
      </g>
     </g>
     <g id="text_1">
      <!-- 0 -->
      <g transform="translate(70.651477 177.030437)scale(0.1 -0.1)">
       <defs>
        <path id="DejaVuSans-30" d="M 2034 4250 
Q 1547 4250 1301 3770 
Q 1056 3291 1056 2328 
Q 1056 1369 1301 889 
Q 1547 409 2034 409 
Q 2525 409 2770 889 
Q 3016 1369 3016 2328 
Q 3016 3291 2770 3770 
Q 2525 4250 2034 4250 
z
M 2034 4750 
Q 2819 4750 3233 4129 
Q 3647 3509 3647 2328 
Q 3647 1150 3233 529 
Q 2819 -91 2034 -91 
Q 1250 -91 836 529 
Q 422 1150 422 2328 
Q 422 3509 836 4129 
Q 1250 4750 2034 4750 
z
" transform="scale(0.015625)"/>
       </defs>
       <use xlink:href="#DejaVuSans-30"/>
      </g>
     </g>
    </g>
    <g id="xtick_2">
     <g id="line2d_2">
      <g>
       <use xlink:href="#me411d48952" x="150.692231" y="162.432" style="stroke: #000000; stroke-width: 0.8"/>
      </g>
     </g>
     <g id="text_2">
      <!-- 1000 -->
      <g transform="translate(137.967231 177.030437)scale(0.1 -0.1)">
       <defs>
        <path id="DejaVuSans-31" d="M 794 531 
L 1825 531 
L 1825 4091 
L 703 3866 
L 703 4441 
L 1819 4666 
L 2450 4666 
L 2450 531 
L 3481 531 
L 3481 0 
L 794 0 
L 794 531 
z
" transform="scale(0.015625)"/>
       </defs>
       <use xlink:href="#DejaVuSans-31"/>
       <use xlink:href="#DejaVuSans-30" x="63.623047"/>
       <use xlink:href="#DejaVuSans-30" x="127.246094"/>
       <use xlink:href="#DejaVuSans-30" x="190.869141"/>
      </g>
     </g>
    </g>
    <g id="xtick_3">
     <g id="line2d_3">
      <g>
       <use xlink:href="#me411d48952" x="227.551736" y="162.432" style="stroke: #000000; stroke-width: 0.8"/>
      </g>
     </g>
     <g id="text_3">
      <!-- 2000 -->
      <g transform="translate(214.826736 177.030437)scale(0.1 -0.1)">
       <defs>
        <path id="DejaVuSans-32" d="M 1228 531 
L 3431 531 
L 3431 0 
L 469 0 
L 469 531 
Q 828 903 1448 1529 
Q 2069 2156 2228 2338 
Q 2531 2678 2651 2914 
Q 2772 3150 2772 3378 
Q 2772 3750 2511 3984 
Q 2250 4219 1831 4219 
Q 1534 4219 1204 4116 
Q 875 4013 500 3803 
L 500 4441 
Q 881 4594 1212 4672 
Q 1544 4750 1819 4750 
Q 2544 4750 2975 4387 
Q 3406 4025 3406 3419 
Q 3406 3131 3298 2873 
Q 3191 2616 2906 2266 
Q 2828 2175 2409 1742 
Q 1991 1309 1228 531 
z
" transform="scale(0.015625)"/>
       </defs>
       <use xlink:href="#DejaVuSans-32"/>
       <use xlink:href="#DejaVuSans-30" x="63.623047"/>
       <use xlink:href="#DejaVuSans-30" x="127.246094"/>
       <use xlink:href="#DejaVuSans-30" x="190.869141"/>
      </g>
     </g>
    </g>
    <g id="xtick_4">
     <g id="line2d_4">
      <g>
       <use xlink:href="#me411d48952" x="304.41124" y="162.432" style="stroke: #000000; stroke-width: 0.8"/>
      </g>
     </g>
     <g id="text_4">
      <!-- 3000 -->
      <g transform="translate(291.68624 177.030437)scale(0.1 -0.1)">
       <defs>
        <path id="DejaVuSans-33" d="M 2597 2516 
Q 3050 2419 3304 2112 
Q 3559 1806 3559 1356 
Q 3559 666 3084 287 
Q 2609 -91 1734 -91 
Q 1441 -91 1130 -33 
Q 819 25 488 141 
L 488 750 
Q 750 597 1062 519 
Q 1375 441 1716 441 
Q 2309 441 2620 675 
Q 2931 909 2931 1356 
Q 2931 1769 2642 2001 
Q 2353 2234 1838 2234 
L 1294 2234 
L 1294 2753 
L 1863 2753 
Q 2328 2753 2575 2939 
Q 2822 3125 2822 3475 
Q 2822 3834 2567 4026 
Q 2313 4219 1838 4219 
Q 1578 4219 1281 4162 
Q 984 4106 628 3988 
L 628 4550 
Q 988 4650 1302 4700 
Q 1616 4750 1894 4750 
Q 2613 4750 3031 4423 
Q 3450 4097 3450 3541 
Q 3450 3153 3228 2886 
Q 3006 2619 2597 2516 
z
" transform="scale(0.015625)"/>
       </defs>
       <use xlink:href="#DejaVuSans-33"/>
       <use xlink:href="#DejaVuSans-30" x="63.623047"/>
       <use xlink:href="#DejaVuSans-30" x="127.246094"/>
       <use xlink:href="#DejaVuSans-30" x="190.869141"/>
      </g>
     </g>
    </g>
    <g id="xtick_5">
     <g id="line2d_5">
      <g>
       <use xlink:href="#me411d48952" x="381.270744" y="162.432" style="stroke: #000000; stroke-width: 0.8"/>
      </g>
     </g>
     <g id="text_5">
      <!-- 4000 -->
      <g transform="translate(368.545744 177.030437)scale(0.1 -0.1)">
       <defs>
        <path id="DejaVuSans-34" d="M 2419 4116 
L 825 1625 
L 2419 1625 
L 2419 4116 
z
M 2253 4666 
L 3047 4666 
L 3047 1625 
L 3713 1625 
L 3713 1100 
L 3047 1100 
L 3047 0 
L 2419 0 
L 2419 1100 
L 313 1100 
L 313 1709 
L 2253 4666 
z
" transform="scale(0.015625)"/>
       </defs>
       <use xlink:href="#DejaVuSans-34"/>
       <use xlink:href="#DejaVuSans-30" x="63.623047"/>
       <use xlink:href="#DejaVuSans-30" x="127.246094"/>
       <use xlink:href="#DejaVuSans-30" x="190.869141"/>
      </g>
     </g>
    </g>
   </g>
   <g id="matplotlib.axis_2">
    <g id="ytick_1">
     <g id="line2d_6">
      <defs>
       <path id="md9b614cf04" d="M 0 0 
L -3.5 0 
" style="stroke: #000000; stroke-width: 0.8"/>
      </defs>
      <g>
       <use xlink:href="#md9b614cf04" x="57.6" y="157.204203" style="stroke: #000000; stroke-width: 0.8"/>
      </g>
     </g>
     <g id="text_6">
      <!-- 0 -->
      <g transform="translate(44.2375 161.003422)scale(0.1 -0.1)">
       <use xlink:href="#DejaVuSans-30"/>
      </g>
     </g>
    </g>
    <g id="ytick_2">
     <g id="line2d_7">
      <g>
       <use xlink:href="#md9b614cf04" x="57.6" y="128.708748" style="stroke: #000000; stroke-width: 0.8"/>
      </g>
     </g>
     <g id="text_7">
      <!-- 1 -->
      <g transform="translate(44.2375 132.507967)scale(0.1 -0.1)">
       <use xlink:href="#DejaVuSans-31"/>
      </g>
     </g>
    </g>
    <g id="ytick_3">
     <g id="line2d_8">
      <g>
       <use xlink:href="#md9b614cf04" x="57.6" y="100.213293" style="stroke: #000000; stroke-width: 0.8"/>
      </g>
     </g>
     <g id="text_8">
      <!-- 2 -->
      <g transform="translate(44.2375 104.012512)scale(0.1 -0.1)">
       <use xlink:href="#DejaVuSans-32"/>
      </g>
     </g>
    </g>
    <g id="ytick_4">
     <g id="line2d_9">
      <g>
       <use xlink:href="#md9b614cf04" x="57.6" y="71.717839" style="stroke: #000000; stroke-width: 0.8"/>
      </g>
     </g>
     <g id="text_9">
      <!-- 3 -->
      <g transform="translate(44.2375 75.517057)scale(0.1 -0.1)">
       <use xlink:href="#DejaVuSans-33"/>
      </g>
     </g>
    </g>
    <g id="ytick_5">
     <g id="line2d_10">
      <g>
       <use xlink:href="#md9b614cf04" x="57.6" y="43.222384" style="stroke: #000000; stroke-width: 0.8"/>
      </g>
     </g>
     <g id="text_10">
      <!-- 4 -->
      <g transform="translate(44.2375 47.021603)scale(0.1 -0.1)">
       <use xlink:href="#DejaVuSans-34"/>
      </g>
     </g>
    </g>
   </g>
   <g id="line2d_11">
    <path d="M 73.832727 46.970182 
L 73.986446 63.096102 
L 74.140165 66.748208 
L 74.447603 73.91291 
L 75.216198 83.40769 
L 77.521983 95.658923 
L 79.59719 102.825541 
L 80.673223 105.990308 
L 81.13438 106.91192 
L 81.979835 108.930874 
L 82.287273 109.580189 
L 84.131901 113.654109 
L 86.207107 117.314633 
L 86.745124 117.98452 
L 86.821983 136.813998 
L 86.898843 136.736618 
L 86.975702 137.173737 
L 87.052562 136.747417 
L 87.129421 136.857893 
L 87.206281 137.335287 
L 87.28314 137.279309 
L 87.36 137.22862 
L 87.513719 137.722891 
L 87.667438 137.263341 
L 87.744298 137.735515 
L 87.821157 137.394573 
L 87.898017 137.510417 
L 88.128595 138.07238 
L 88.282314 138.066428 
L 88.743471 138.862896 
L 88.820331 138.672244 
L 88.89719 138.706385 
L 89.127769 138.67408 
L 89.435207 139.092374 
L 89.819504 139.007476 
L 90.51124 139.512599 
L 90.664959 139.443329 
L 91.664132 139.837885 
L 91.817851 139.935415 
L 92.04843 139.933968 
L 92.817025 140.387099 
L 96.967438 141.483984 
L 97.121157 141.486744 
L 97.736033 141.694559 
L 98.427769 141.835661 
L 99.73438 142.087843 
L 99.81124 146.215402 
L 99.888099 145.875103 
L 99.964959 145.868592 
L 100.118678 144.964854 
L 100.426116 145.996266 
L 100.502975 145.820553 
L 100.579835 145.628234 
L 100.656694 145.774842 
L 100.810413 145.500803 
L 101.194711 146.175931 
L 101.425289 146.100037 
L 101.809587 146.46337 
L 102.040165 146.127666 
L 102.193884 146.312321 
L 102.424463 146.261704 
L 102.578182 146.334389 
L 102.80876 146.176666 
L 103.039339 146.114918 
L 103.346777 146.238283 
L 103.500496 146.253644 
L 104.115372 146.332777 
L 104.42281 146.407086 
L 104.576529 146.378895 
L 105.575702 146.436117 
L 106.267438 146.332823 
L 106.498017 146.388485 
L 106.728595 146.349217 
L 106.959174 146.411905 
L 108.957521 146.321721 
L 112.723636 146.692467 
L 112.800496 146.558725 
L 112.954215 149.484005 
L 113.031074 149.761597 
L 113.107934 149.55382 
L 113.184793 149.610609 
L 113.261653 149.932025 
L 113.338512 149.676504 
L 113.492231 149.854074 
L 113.64595 149.727667 
L 113.72281 149.911995 
L 113.876529 149.310445 
L 114.107107 149.665339 
L 114.183967 149.514654 
L 114.337686 149.559889 
L 114.798843 149.382907 
L 115.029421 149.226293 
L 115.18314 149.285434 
L 115.567438 149.205826 
L 115.721157 149.305578 
L 115.798017 149.160956 
L 115.874876 149.24345 
L 116.028595 149.230374 
L 116.259174 149.135118 
L 116.412893 149.078616 
L 116.720331 149.155118 
L 118.564959 149.136417 
L 118.872397 149.103171 
L 119.87157 148.975725 
L 120.179008 149.052525 
L 120.717025 149.102472 
L 120.947603 149.110303 
L 121.255041 149.126684 
L 121.639339 149.206633 
L 122.254215 149.216587 
L 122.869091 149.123098 
L 124.944298 149.254244 
L 125.482314 149.206212 
L 125.712893 149.213068 
L 125.866612 150.498675 
L 125.943471 148.507133 
L 126.020331 149.380696 
L 126.09719 149.3712 
L 126.17405 148.918474 
L 126.404628 150.005622 
L 126.481488 150.047408 
L 126.558347 149.93064 
L 126.635207 150.021246 
L 126.788926 150.403851 
L 126.865785 150.406546 
L 126.942645 150.235684 
L 127.019504 150.271788 
L 127.096364 150.271648 
L 127.173223 150.409034 
L 127.250083 150.320243 
L 127.403802 150.318924 
L 127.557521 150.283779 
L 127.63438 150.328326 
L 127.941818 150.002166 
L 128.249256 150.110547 
L 128.864132 149.881257 
L 129.24843 149.976127 
L 129.709587 149.968621 
L 129.863306 150.114235 
L 130.170744 149.970577 
L 131.554215 150.284705 
L 132.476529 150.285543 
L 133.398843 150.362185 
L 133.78314 150.333763 
L 134.321157 150.371529 
L 134.859174 150.33151 
L 135.627769 150.424118 
L 135.935207 150.395711 
L 136.319504 150.408458 
L 136.857521 150.394011 
L 138.702149 150.421888 
L 138.855868 153.13929 
L 138.932727 153.465142 
L 139.009587 153.200795 
L 139.086446 153.390019 
L 139.240165 151.924086 
L 139.317025 151.879536 
L 139.393884 151.658544 
L 139.470744 151.756769 
L 139.624463 151.652352 
L 139.778182 151.797793 
L 139.931901 151.813194 
L 140.08562 151.830712 
L 140.316198 151.552849 
L 140.546777 151.523634 
L 140.700496 151.556275 
L 141.469091 151.698639 
L 141.699669 151.548483 
L 141.930248 151.629196 
L 142.160826 151.54067 
L 142.852562 151.41798 
L 143.08314 151.428969 
L 143.313719 151.405309 
L 143.544298 151.410607 
L 148.693884 151.501246 
L 151.537686 151.312443 
L 151.691405 151.324569 
L 151.768264 149.932609 
L 151.921983 151.711405 
L 151.998843 151.224568 
L 152.075702 151.85776 
L 152.152562 151.705003 
L 152.306281 151.42461 
L 152.38314 151.679445 
L 152.46 151.541617 
L 152.53686 151.725682 
L 152.613719 151.604851 
L 152.998017 152.222117 
L 153.459174 152.18492 
L 153.612893 152.265275 
L 153.766612 152.212511 
L 153.920331 152.263509 
L 154.304628 152.242103 
L 154.688926 152.438846 
L 154.842645 152.380944 
L 155.150083 152.485097 
L 155.457521 152.438219 
L 156.533554 152.385307 
L 156.764132 152.353256 
L 157.07157 152.391801 
L 157.609587 152.462624 
L 157.917025 152.494878 
L 158.68562 152.432591 
L 158.993058 152.438887 
L 162.067438 152.409169 
L 162.528595 152.415998 
L 164.680661 152.347441 
L 164.757521 151.888005 
L 164.83438 151.991815 
L 165.141818 153.352786 
L 165.218678 153.601505 
L 165.295537 153.548597 
L 165.526116 153.239025 
L 165.756694 153.394496 
L 165.910413 153.148475 
L 166.064132 153.213496 
L 166.294711 152.95337 
L 166.44843 153.038713 
L 166.602149 152.969024 
L 166.755868 152.983224 
L 166.832727 152.839519 
L 166.909587 152.923717 
L 166.986446 152.830183 
L 167.217025 152.931874 
L 167.370744 152.947735 
L 167.524463 152.779825 
L 168.216198 152.822961 
L 168.600496 152.878257 
L 177.669917 152.883342 
L 177.823636 150.887821 
L 178.054215 152.202309 
L 178.284793 152.5387 
L 178.361653 152.54227 
L 178.592231 153.030137 
L 179.053388 152.996548 
L 179.283967 153.008421 
L 180.28314 153.441225 
L 180.513719 153.517762 
L 181.97405 153.342358 
L 182.512066 153.469052 
L 182.819504 153.559156 
L 183.126942 153.579203 
L 183.895537 153.644375 
L 190.659174 153.501671 
L 190.736033 154.664858 
L 190.889752 153.693623 
L 190.966612 153.947485 
L 191.120331 153.661007 
L 191.27405 154.21731 
L 191.427769 153.91661 
L 191.658347 154.044217 
L 191.965785 153.973211 
L 192.196364 154.128318 
L 192.350083 153.998403 
L 192.580661 154.157561 
L 196.039339 154.409662 
L 196.654215 154.337759 
L 197.038512 154.346002 
L 198.806281 154.265602 
L 199.190579 154.183757 
L 200.343471 154.146723 
L 200.958347 154.066938 
L 203.340992 154.08568 
L 203.64843 154.080208 
L 203.802149 154.769371 
L 203.879008 154.657219 
L 203.955868 155.076668 
L 204.032727 154.932271 
L 204.109587 154.93263 
L 204.417025 154.545298 
L 204.801322 154.348412 
L 205.031901 154.481698 
L 205.262479 154.546968 
L 205.416198 154.511495 
L 206.338512 154.647528 
L 207.645124 154.53912 
L 208.029421 154.576716 
L 208.33686 154.547091 
L 209.182314 154.547112 
L 209.79719 154.471837 
L 216.483967 154.366412 
L 216.637686 154.373818 
L 216.714545 154.868215 
L 216.791405 154.093011 
L 216.868264 154.753761 
L 216.945124 154.613196 
L 217.021983 154.591613 
L 217.252562 154.156574 
L 217.63686 154.557807 
L 217.944298 154.579721 
L 218.174876 154.600805 
L 218.251736 154.42076 
L 218.328595 154.502843 
L 218.559174 154.47884 
L 218.712893 154.405589 
L 219.404628 154.601801 
L 219.712066 154.463283 
L 220.480661 154.493222 
L 221.864132 154.679891 
L 222.709587 154.67133 
L 223.170744 154.658477 
L 226.168264 154.698793 
L 229.626942 154.643695 
L 229.703802 155.940302 
L 229.857521 154.605282 
L 229.93438 155.022624 
L 230.164959 154.525189 
L 231.702149 155.016751 
L 232.240165 155.09653 
L 232.701322 155.159674 
L 232.931901 155.133882 
L 233.469917 155.199281 
L 234.392231 155.236626 
L 235.775702 155.176324 
L 236.08314 155.10405 
L 236.698017 155.112769 
L 237.236033 155.083481 
L 237.927769 155.042776 
L 238.773223 155.047696 
L 239.388099 155.022385 
L 242.616198 154.85417 
L 242.769917 155.787715 
L 242.923636 155.511294 
L 243.000496 155.477604 
L 243.077355 155.660371 
L 243.231074 155.355472 
L 243.384793 155.58784 
L 243.769091 155.378434 
L 243.84595 155.432997 
L 243.92281 155.320466 
L 243.999669 155.390565 
L 244.383967 155.46597 
L 244.537686 155.373146 
L 244.768264 155.40064 
L 244.998843 155.400071 
L 245.53686 155.322663 
L 248.764959 155.426621 
L 249.072397 155.347026 
L 249.994711 155.326634 
L 250.686446 155.325592 
L 255.605455 155.251462 
L 255.682314 154.76631 
L 255.836033 155.491797 
L 255.989752 155.198331 
L 256.143471 155.100171 
L 256.37405 155.341233 
L 256.450909 155.295121 
L 256.681488 155.448265 
L 256.758347 155.408331 
L 256.835207 155.215385 
L 256.912066 155.25407 
L 257.373223 155.380652 
L 258.372397 155.391237 
L 258.756694 155.421442 
L 259.755868 155.432512 
L 260.063306 155.445027 
L 260.755041 155.41947 
L 261.062479 155.400867 
L 261.754215 155.334681 
L 268.594711 155.382273 
L 268.74843 156.373689 
L 268.902149 155.627065 
L 269.209587 155.875786 
L 269.440165 155.919078 
L 269.670744 155.950557 
L 269.824463 155.929418 
L 269.978182 155.8949 
L 270.746777 155.924943 
L 271.438512 155.989827 
L 278.04843 155.557534 
L 281.12281 155.613022 
L 281.583967 155.591342 
L 281.660826 155.024044 
L 281.814545 155.684445 
L 282.198843 155.868094 
L 282.352562 155.83302 
L 282.73686 155.99374 
L 283.121157 155.968117 
L 283.428595 155.944613 
L 283.889752 155.915179 
L 284.19719 155.925075 
L 284.888926 155.937872 
L 287.425289 155.951104 
L 288.578182 155.92204 
L 289.346777 155.869921 
L 291.96 155.844714 
L 292.805455 155.796281 
L 294.573223 155.772273 
L 294.650083 156.786855 
L 294.726942 155.776644 
L 294.803802 155.792337 
L 294.880661 155.776378 
L 295.03438 155.366783 
L 295.11124 155.404898 
L 295.341818 155.64717 
L 295.418678 155.681361 
L 295.495537 155.545831 
L 295.572397 155.597597 
L 295.726116 155.58155 
L 295.956694 155.745442 
L 296.110413 155.630329 
L 296.340992 155.646436 
L 296.802149 155.707356 
L 296.955868 155.619549 
L 297.263306 155.639823 
L 298.18562 155.623755 
L 298.569917 155.669525 
L 302.412893 155.855081 
L 304.795537 155.931687 
L 306.332727 155.949104 
L 307.562479 155.943158 
L 307.716198 156.514087 
L 307.793058 156.218922 
L 309.791405 156.358169 
L 311.021157 156.276911 
L 314.402975 156.269523 
L 316.401322 156.305859 
L 317.169917 156.253959 
L 318.860826 156.251038 
L 320.551736 156.204371 
L 320.628595 155.921063 
L 320.782314 156.338828 
L 320.936033 156.027581 
L 321.166612 156.235563 
L 321.704628 156.042737 
L 322.242645 156.023405 
L 322.626942 156.144532 
L 322.93438 156.133146 
L 323.702975 156.191679 
L 324.010413 156.14052 
L 333.540992 156.272341 
L 333.617851 156.835735 
L 333.694711 156.642035 
L 333.77157 156.683538 
L 333.925289 156.286365 
L 334.232727 156.426987 
L 334.309587 156.471972 
L 334.463306 156.356114 
L 334.770744 156.402931 
L 335.078182 156.314167 
L 335.462479 156.34652 
L 339.536033 156.340762 
L 340.765785 156.338076 
L 341.918678 156.313954 
L 345.454215 156.254739 
L 346.607107 156.19407 
L 346.683967 156.60389 
L 346.760826 156.560303 
L 347.221983 156.468702 
L 348.298017 156.58798 
L 348.528595 156.545147 
L 348.989752 156.536181 
L 349.758347 156.501896 
L 350.526942 156.453476 
L 352.525289 156.410759 
L 354.139339 156.397077 
L 356.98314 156.357964 
L 359.519504 156.31379 
L 359.596364 156.933818 
L 359.750083 156.120366 
L 359.903802 156.332324 
L 359.980661 156.267503 
L 360.288099 156.550249 
L 360.441818 156.448308 
L 360.826116 156.513939 
L 362.517025 156.560021 
L 363.362479 156.568751 
L 364.899669 156.535462 
L 367.205455 156.361452 
L 372.278182 156.345718 
L 372.50876 156.345085 
L 372.816198 156.698932 
L 373.354215 156.653638 
L 373.738512 156.689506 
L 373.969091 156.593459 
L 374.507107 156.53812 
L 375.198843 156.531752 
L 376.736033 156.588071 
L 377.27405 156.57374 
L 380.579008 156.600516 
L 383.883967 156.561924 
L 385.498017 156.539907 
L 385.651736 156.840852 
L 385.728595 156.326889 
L 385.805455 156.378016 
L 386.036033 156.476231 
L 386.112893 156.358857 
L 386.189752 156.409934 
L 386.57405 156.345632 
L 386.727769 156.357663 
L 386.881488 156.272361 
L 387.342645 156.397159 
L 387.880661 156.364267 
L 388.341818 156.378702 
L 390.109587 156.48042 
L 390.878182 156.491931 
L 392.799669 156.503501 
L 393.568264 156.502096 
L 395.566612 156.505101 
L 398.102975 156.505222 
L 398.487273 156.509339 
L 398.487273 156.509339 
" clip-path="url(#pf7fa966d51)" style="fill: none; stroke: #1f77b4; stroke-width: 1.5; stroke-linecap: square"/>
   </g>
   <g id="line2d_12">
    <defs>
     <path id="mf893af6594" d="M -3 0 
L 0 4.5 
L 3 0 
" style="stroke: #ff7f0e; stroke-linejoin: miter"/>
    </defs>
    <g clip-path="url(#pf7fa966d51)">
     <use xlink:href="#mf893af6594" x="73.832727" y="46.970182" style="fill: #ff7f0e; stroke: #ff7f0e; stroke-linejoin: miter"/>
     <use xlink:href="#mf893af6594" x="86.821983" y="136.813998" style="fill: #ff7f0e; stroke: #ff7f0e; stroke-linejoin: miter"/>
     <use xlink:href="#mf893af6594" x="99.81124" y="146.215402" style="fill: #ff7f0e; stroke: #ff7f0e; stroke-linejoin: miter"/>
     <use xlink:href="#mf893af6594" x="112.800496" y="146.558725" style="fill: #ff7f0e; stroke: #ff7f0e; stroke-linejoin: miter"/>
     <use xlink:href="#mf893af6594" x="125.789752" y="150.481366" style="fill: #ff7f0e; stroke: #ff7f0e; stroke-linejoin: miter"/>
     <use xlink:href="#mf893af6594" x="138.779008" y="152.807787" style="fill: #ff7f0e; stroke: #ff7f0e; stroke-linejoin: miter"/>
     <use xlink:href="#mf893af6594" x="151.768264" y="149.932609" style="fill: #ff7f0e; stroke: #ff7f0e; stroke-linejoin: miter"/>
     <use xlink:href="#mf893af6594" x="164.757521" y="151.888005" style="fill: #ff7f0e; stroke: #ff7f0e; stroke-linejoin: miter"/>
     <use xlink:href="#mf893af6594" x="177.746777" y="151.737899" style="fill: #ff7f0e; stroke: #ff7f0e; stroke-linejoin: miter"/>
     <use xlink:href="#mf893af6594" x="190.736033" y="154.664858" style="fill: #ff7f0e; stroke: #ff7f0e; stroke-linejoin: miter"/>
     <use xlink:href="#mf893af6594" x="203.725289" y="154.637569" style="fill: #ff7f0e; stroke: #ff7f0e; stroke-linejoin: miter"/>
     <use xlink:href="#mf893af6594" x="216.714545" y="154.868215" style="fill: #ff7f0e; stroke: #ff7f0e; stroke-linejoin: miter"/>
     <use xlink:href="#mf893af6594" x="229.703802" y="155.940302" style="fill: #ff7f0e; stroke: #ff7f0e; stroke-linejoin: miter"/>
     <use xlink:href="#mf893af6594" x="242.693058" y="155.768739" style="fill: #ff7f0e; stroke: #ff7f0e; stroke-linejoin: miter"/>
     <use xlink:href="#mf893af6594" x="255.682314" y="154.76631" style="fill: #ff7f0e; stroke: #ff7f0e; stroke-linejoin: miter"/>
     <use xlink:href="#mf893af6594" x="268.67157" y="155.887386" style="fill: #ff7f0e; stroke: #ff7f0e; stroke-linejoin: miter"/>
     <use xlink:href="#mf893af6594" x="281.660826" y="155.024044" style="fill: #ff7f0e; stroke: #ff7f0e; stroke-linejoin: miter"/>
     <use xlink:href="#mf893af6594" x="294.650083" y="156.786855" style="fill: #ff7f0e; stroke: #ff7f0e; stroke-linejoin: miter"/>
     <use xlink:href="#mf893af6594" x="307.639339" y="156.123395" style="fill: #ff7f0e; stroke: #ff7f0e; stroke-linejoin: miter"/>
     <use xlink:href="#mf893af6594" x="320.628595" y="155.921063" style="fill: #ff7f0e; stroke: #ff7f0e; stroke-linejoin: miter"/>
     <use xlink:href="#mf893af6594" x="333.617851" y="156.835735" style="fill: #ff7f0e; stroke: #ff7f0e; stroke-linejoin: miter"/>
     <use xlink:href="#mf893af6594" x="346.607107" y="156.19407" style="fill: #ff7f0e; stroke: #ff7f0e; stroke-linejoin: miter"/>
     <use xlink:href="#mf893af6594" x="359.596364" y="156.933818" style="fill: #ff7f0e; stroke: #ff7f0e; stroke-linejoin: miter"/>
     <use xlink:href="#mf893af6594" x="372.58562" y="156.478178" style="fill: #ff7f0e; stroke: #ff7f0e; stroke-linejoin: miter"/>
     <use xlink:href="#mf893af6594" x="385.574876" y="156.782752" style="fill: #ff7f0e; stroke: #ff7f0e; stroke-linejoin: miter"/>
    </g>
   </g>
   <g id="patch_3">
    <path d="M 57.6 162.432 
L 57.6 41.472 
" style="fill: none; stroke: #000000; stroke-width: 0.8; stroke-linejoin: miter; stroke-linecap: square"/>
   </g>
   <g id="patch_4">
    <path d="M 414.72 162.432 
L 414.72 41.472 
" style="fill: none; stroke: #000000; stroke-width: 0.8; stroke-linejoin: miter; stroke-linecap: square"/>
   </g>
   <g id="patch_5">
    <path d="M 57.6 162.432 
L 414.72 162.432 
" style="fill: none; stroke: #000000; stroke-width: 0.8; stroke-linejoin: miter; stroke-linecap: square"/>
   </g>
   <g id="patch_6">
    <path d="M 57.6 41.472 
L 414.72 41.472 
" style="fill: none; stroke: #000000; stroke-width: 0.8; stroke-linejoin: miter; stroke-linecap: square"/>
   </g>
   <g id="text_11">
    <!-- loss -->
    <g transform="translate(224.570625 35.472)scale(0.12 -0.12)">
     <defs>
      <path id="DejaVuSans-6c" d="M 603 4863 
L 1178 4863 
L 1178 0 
L 603 0 
L 603 4863 
z
" transform="scale(0.015625)"/>
      <path id="DejaVuSans-6f" d="M 1959 3097 
Q 1497 3097 1228 2736 
Q 959 2375 959 1747 
Q 959 1119 1226 758 
Q 1494 397 1959 397 
Q 2419 397 2687 759 
Q 2956 1122 2956 1747 
Q 2956 2369 2687 2733 
Q 2419 3097 1959 3097 
z
M 1959 3584 
Q 2709 3584 3137 3096 
Q 3566 2609 3566 1747 
Q 3566 888 3137 398 
Q 2709 -91 1959 -91 
Q 1206 -91 779 398 
Q 353 888 353 1747 
Q 353 2609 779 3096 
Q 1206 3584 1959 3584 
z
" transform="scale(0.015625)"/>
      <path id="DejaVuSans-73" d="M 2834 3397 
L 2834 2853 
Q 2591 2978 2328 3040 
Q 2066 3103 1784 3103 
Q 1356 3103 1142 2972 
Q 928 2841 928 2578 
Q 928 2378 1081 2264 
Q 1234 2150 1697 2047 
L 1894 2003 
Q 2506 1872 2764 1633 
Q 3022 1394 3022 966 
Q 3022 478 2636 193 
Q 2250 -91 1575 -91 
Q 1294 -91 989 -36 
Q 684 19 347 128 
L 347 722 
Q 666 556 975 473 
Q 1284 391 1588 391 
Q 1994 391 2212 530 
Q 2431 669 2431 922 
Q 2431 1156 2273 1281 
Q 2116 1406 1581 1522 
L 1381 1569 
Q 847 1681 609 1914 
Q 372 2147 372 2553 
Q 372 3047 722 3315 
Q 1072 3584 1716 3584 
Q 2034 3584 2315 3537 
Q 2597 3491 2834 3397 
z
" transform="scale(0.015625)"/>
     </defs>
     <use xlink:href="#DejaVuSans-6c"/>
     <use xlink:href="#DejaVuSans-6f" x="27.783203"/>
     <use xlink:href="#DejaVuSans-73" x="88.964844"/>
     <use xlink:href="#DejaVuSans-73" x="141.064453"/>
    </g>
   </g>
   <g id="legend_1">
    <g id="patch_7">
     <path d="M 345.098125 78.82825 
L 407.72 78.82825 
Q 409.72 78.82825 409.72 76.82825 
L 409.72 48.472 
Q 409.72 46.472 407.72 46.472 
L 345.098125 46.472 
Q 343.098125 46.472 343.098125 48.472 
L 343.098125 76.82825 
Q 343.098125 78.82825 345.098125 78.82825 
z
" style="fill: #ffffff; opacity: 0.8; stroke: #cccccc; stroke-linejoin: miter"/>
    </g>
    <g id="line2d_13">
     <path d="M 347.098125 54.570437 
L 357.098125 54.570437 
L 367.098125 54.570437 
" style="fill: none; stroke: #1f77b4; stroke-width: 1.5; stroke-linecap: square"/>
    </g>
    <g id="text_12">
     <!-- Batch -->
     <g transform="translate(375.098125 58.070437)scale(0.1 -0.1)">
      <defs>
       <path id="DejaVuSans-42" d="M 1259 2228 
L 1259 519 
L 2272 519 
Q 2781 519 3026 730 
Q 3272 941 3272 1375 
Q 3272 1813 3026 2020 
Q 2781 2228 2272 2228 
L 1259 2228 
z
M 1259 4147 
L 1259 2741 
L 2194 2741 
Q 2656 2741 2882 2914 
Q 3109 3088 3109 3444 
Q 3109 3797 2882 3972 
Q 2656 4147 2194 4147 
L 1259 4147 
z
M 628 4666 
L 2241 4666 
Q 2963 4666 3353 4366 
Q 3744 4066 3744 3513 
Q 3744 3084 3544 2831 
Q 3344 2578 2956 2516 
Q 3422 2416 3680 2098 
Q 3938 1781 3938 1306 
Q 3938 681 3513 340 
Q 3088 0 2303 0 
L 628 0 
L 628 4666 
z
" transform="scale(0.015625)"/>
       <path id="DejaVuSans-61" d="M 2194 1759 
Q 1497 1759 1228 1600 
Q 959 1441 959 1056 
Q 959 750 1161 570 
Q 1363 391 1709 391 
Q 2188 391 2477 730 
Q 2766 1069 2766 1631 
L 2766 1759 
L 2194 1759 
z
M 3341 1997 
L 3341 0 
L 2766 0 
L 2766 531 
Q 2569 213 2275 61 
Q 1981 -91 1556 -91 
Q 1019 -91 701 211 
Q 384 513 384 1019 
Q 384 1609 779 1909 
Q 1175 2209 1959 2209 
L 2766 2209 
L 2766 2266 
Q 2766 2663 2505 2880 
Q 2244 3097 1772 3097 
Q 1472 3097 1187 3025 
Q 903 2953 641 2809 
L 641 3341 
Q 956 3463 1253 3523 
Q 1550 3584 1831 3584 
Q 2591 3584 2966 3190 
Q 3341 2797 3341 1997 
z
" transform="scale(0.015625)"/>
       <path id="DejaVuSans-74" d="M 1172 4494 
L 1172 3500 
L 2356 3500 
L 2356 3053 
L 1172 3053 
L 1172 1153 
Q 1172 725 1289 603 
Q 1406 481 1766 481 
L 2356 481 
L 2356 0 
L 1766 0 
Q 1100 0 847 248 
Q 594 497 594 1153 
L 594 3053 
L 172 3053 
L 172 3500 
L 594 3500 
L 594 4494 
L 1172 4494 
z
" transform="scale(0.015625)"/>
       <path id="DejaVuSans-63" d="M 3122 3366 
L 3122 2828 
Q 2878 2963 2633 3030 
Q 2388 3097 2138 3097 
Q 1578 3097 1268 2742 
Q 959 2388 959 1747 
Q 959 1106 1268 751 
Q 1578 397 2138 397 
Q 2388 397 2633 464 
Q 2878 531 3122 666 
L 3122 134 
Q 2881 22 2623 -34 
Q 2366 -91 2075 -91 
Q 1284 -91 818 406 
Q 353 903 353 1747 
Q 353 2603 823 3093 
Q 1294 3584 2113 3584 
Q 2378 3584 2631 3529 
Q 2884 3475 3122 3366 
z
" transform="scale(0.015625)"/>
       <path id="DejaVuSans-68" d="M 3513 2113 
L 3513 0 
L 2938 0 
L 2938 2094 
Q 2938 2591 2744 2837 
Q 2550 3084 2163 3084 
Q 1697 3084 1428 2787 
Q 1159 2491 1159 1978 
L 1159 0 
L 581 0 
L 581 4863 
L 1159 4863 
L 1159 2956 
Q 1366 3272 1645 3428 
Q 1925 3584 2291 3584 
Q 2894 3584 3203 3211 
Q 3513 2838 3513 2113 
z
" transform="scale(0.015625)"/>
      </defs>
      <use xlink:href="#DejaVuSans-42"/>
      <use xlink:href="#DejaVuSans-61" x="68.603516"/>
      <use xlink:href="#DejaVuSans-74" x="129.882812"/>
      <use xlink:href="#DejaVuSans-63" x="169.091797"/>
      <use xlink:href="#DejaVuSans-68" x="224.072266"/>
     </g>
    </g>
    <g id="line2d_14">
     <g>
      <use xlink:href="#mf893af6594" x="357.098125" y="69.248562" style="fill: #ff7f0e; stroke: #ff7f0e; stroke-linejoin: miter"/>
     </g>
    </g>
    <g id="text_13">
     <!-- Epoch -->
     <g transform="translate(375.098125 72.748562)scale(0.1 -0.1)">
      <defs>
       <path id="DejaVuSans-45" d="M 628 4666 
L 3578 4666 
L 3578 4134 
L 1259 4134 
L 1259 2753 
L 3481 2753 
L 3481 2222 
L 1259 2222 
L 1259 531 
L 3634 531 
L 3634 0 
L 628 0 
L 628 4666 
z
" transform="scale(0.015625)"/>
       <path id="DejaVuSans-70" d="M 1159 525 
L 1159 -1331 
L 581 -1331 
L 581 3500 
L 1159 3500 
L 1159 2969 
Q 1341 3281 1617 3432 
Q 1894 3584 2278 3584 
Q 2916 3584 3314 3078 
Q 3713 2572 3713 1747 
Q 3713 922 3314 415 
Q 2916 -91 2278 -91 
Q 1894 -91 1617 61 
Q 1341 213 1159 525 
z
M 3116 1747 
Q 3116 2381 2855 2742 
Q 2594 3103 2138 3103 
Q 1681 3103 1420 2742 
Q 1159 2381 1159 1747 
Q 1159 1113 1420 752 
Q 1681 391 2138 391 
Q 2594 391 2855 752 
Q 3116 1113 3116 1747 
z
" transform="scale(0.015625)"/>
      </defs>
      <use xlink:href="#DejaVuSans-45"/>
      <use xlink:href="#DejaVuSans-70" x="63.183594"/>
      <use xlink:href="#DejaVuSans-6f" x="126.660156"/>
      <use xlink:href="#DejaVuSans-63" x="187.841797"/>
      <use xlink:href="#DejaVuSans-68" x="242.822266"/>
     </g>
    </g>
   </g>
  </g>
  <g id="axes_2">
   <g id="patch_8">
    <path d="M 57.6 307.584 
L 414.72 307.584 
L 414.72 186.624 
L 57.6 186.624 
z
" style="fill: #ffffff"/>
   </g>
   <g id="matplotlib.axis_3">
    <g id="xtick_6">
     <g id="line2d_15">
      <g>
       <use xlink:href="#me411d48952" x="73.832727" y="307.584" style="stroke: #000000; stroke-width: 0.8"/>
      </g>
     </g>
     <g id="text_14">
      <!-- 0 -->
      <g transform="translate(70.651477 322.182437)scale(0.1 -0.1)">
       <use xlink:href="#DejaVuSans-30"/>
      </g>
     </g>
    </g>
    <g id="xtick_7">
     <g id="line2d_16">
      <g>
       <use xlink:href="#me411d48952" x="150.692231" y="307.584" style="stroke: #000000; stroke-width: 0.8"/>
      </g>
     </g>
     <g id="text_15">
      <!-- 1000 -->
      <g transform="translate(137.967231 322.182437)scale(0.1 -0.1)">
       <use xlink:href="#DejaVuSans-31"/>
       <use xlink:href="#DejaVuSans-30" x="63.623047"/>
       <use xlink:href="#DejaVuSans-30" x="127.246094"/>
       <use xlink:href="#DejaVuSans-30" x="190.869141"/>
      </g>
     </g>
    </g>
    <g id="xtick_8">
     <g id="line2d_17">
      <g>
       <use xlink:href="#me411d48952" x="227.551736" y="307.584" style="stroke: #000000; stroke-width: 0.8"/>
      </g>
     </g>
     <g id="text_16">
      <!-- 2000 -->
      <g transform="translate(214.826736 322.182437)scale(0.1 -0.1)">
       <use xlink:href="#DejaVuSans-32"/>
       <use xlink:href="#DejaVuSans-30" x="63.623047"/>
       <use xlink:href="#DejaVuSans-30" x="127.246094"/>
       <use xlink:href="#DejaVuSans-30" x="190.869141"/>
      </g>
     </g>
    </g>
    <g id="xtick_9">
     <g id="line2d_18">
      <g>
       <use xlink:href="#me411d48952" x="304.41124" y="307.584" style="stroke: #000000; stroke-width: 0.8"/>
      </g>
     </g>
     <g id="text_17">
      <!-- 3000 -->
      <g transform="translate(291.68624 322.182437)scale(0.1 -0.1)">
       <use xlink:href="#DejaVuSans-33"/>
       <use xlink:href="#DejaVuSans-30" x="63.623047"/>
       <use xlink:href="#DejaVuSans-30" x="127.246094"/>
       <use xlink:href="#DejaVuSans-30" x="190.869141"/>
      </g>
     </g>
    </g>
    <g id="xtick_10">
     <g id="line2d_19">
      <g>
       <use xlink:href="#me411d48952" x="381.270744" y="307.584" style="stroke: #000000; stroke-width: 0.8"/>
      </g>
     </g>
     <g id="text_18">
      <!-- 4000 -->
      <g transform="translate(368.545744 322.182437)scale(0.1 -0.1)">
       <use xlink:href="#DejaVuSans-34"/>
       <use xlink:href="#DejaVuSans-30" x="63.623047"/>
       <use xlink:href="#DejaVuSans-30" x="127.246094"/>
       <use xlink:href="#DejaVuSans-30" x="190.869141"/>
      </g>
     </g>
    </g>
   </g>
   <g id="matplotlib.axis_4">
    <g id="ytick_6">
     <g id="line2d_20">
      <g>
       <use xlink:href="#md9b614cf04" x="57.6" y="289.19353" style="stroke: #000000; stroke-width: 0.8"/>
      </g>
     </g>
     <g id="text_19">
      <!-- 0.2 -->
      <g transform="translate(34.696875 292.992749)scale(0.1 -0.1)">
       <defs>
        <path id="DejaVuSans-2e" d="M 684 794 
L 1344 794 
L 1344 0 
L 684 0 
L 684 794 
z
" transform="scale(0.015625)"/>
       </defs>
       <use xlink:href="#DejaVuSans-30"/>
       <use xlink:href="#DejaVuSans-2e" x="63.623047"/>
       <use xlink:href="#DejaVuSans-32" x="95.410156"/>
      </g>
     </g>
    </g>
    <g id="ytick_7">
     <g id="line2d_21">
      <g>
       <use xlink:href="#md9b614cf04" x="57.6" y="264.925693" style="stroke: #000000; stroke-width: 0.8"/>
      </g>
     </g>
     <g id="text_20">
      <!-- 0.4 -->
      <g transform="translate(34.696875 268.724912)scale(0.1 -0.1)">
       <use xlink:href="#DejaVuSans-30"/>
       <use xlink:href="#DejaVuSans-2e" x="63.623047"/>
       <use xlink:href="#DejaVuSans-34" x="95.410156"/>
      </g>
     </g>
    </g>
    <g id="ytick_8">
     <g id="line2d_22">
      <g>
       <use xlink:href="#md9b614cf04" x="57.6" y="240.657856" style="stroke: #000000; stroke-width: 0.8"/>
      </g>
     </g>
     <g id="text_21">
      <!-- 0.6 -->
      <g transform="translate(34.696875 244.457075)scale(0.1 -0.1)">
       <defs>
        <path id="DejaVuSans-36" d="M 2113 2584 
Q 1688 2584 1439 2293 
Q 1191 2003 1191 1497 
Q 1191 994 1439 701 
Q 1688 409 2113 409 
Q 2538 409 2786 701 
Q 3034 994 3034 1497 
Q 3034 2003 2786 2293 
Q 2538 2584 2113 2584 
z
M 3366 4563 
L 3366 3988 
Q 3128 4100 2886 4159 
Q 2644 4219 2406 4219 
Q 1781 4219 1451 3797 
Q 1122 3375 1075 2522 
Q 1259 2794 1537 2939 
Q 1816 3084 2150 3084 
Q 2853 3084 3261 2657 
Q 3669 2231 3669 1497 
Q 3669 778 3244 343 
Q 2819 -91 2113 -91 
Q 1303 -91 875 529 
Q 447 1150 447 2328 
Q 447 3434 972 4092 
Q 1497 4750 2381 4750 
Q 2619 4750 2861 4703 
Q 3103 4656 3366 4563 
z
" transform="scale(0.015625)"/>
       </defs>
       <use xlink:href="#DejaVuSans-30"/>
       <use xlink:href="#DejaVuSans-2e" x="63.623047"/>
       <use xlink:href="#DejaVuSans-36" x="95.410156"/>
      </g>
     </g>
    </g>
    <g id="ytick_9">
     <g id="line2d_23">
      <g>
       <use xlink:href="#md9b614cf04" x="57.6" y="216.390019" style="stroke: #000000; stroke-width: 0.8"/>
      </g>
     </g>
     <g id="text_22">
      <!-- 0.8 -->
      <g transform="translate(34.696875 220.189238)scale(0.1 -0.1)">
       <defs>
        <path id="DejaVuSans-38" d="M 2034 2216 
Q 1584 2216 1326 1975 
Q 1069 1734 1069 1313 
Q 1069 891 1326 650 
Q 1584 409 2034 409 
Q 2484 409 2743 651 
Q 3003 894 3003 1313 
Q 3003 1734 2745 1975 
Q 2488 2216 2034 2216 
z
M 1403 2484 
Q 997 2584 770 2862 
Q 544 3141 544 3541 
Q 544 4100 942 4425 
Q 1341 4750 2034 4750 
Q 2731 4750 3128 4425 
Q 3525 4100 3525 3541 
Q 3525 3141 3298 2862 
Q 3072 2584 2669 2484 
Q 3125 2378 3379 2068 
Q 3634 1759 3634 1313 
Q 3634 634 3220 271 
Q 2806 -91 2034 -91 
Q 1263 -91 848 271 
Q 434 634 434 1313 
Q 434 1759 690 2068 
Q 947 2378 1403 2484 
z
M 1172 3481 
Q 1172 3119 1398 2916 
Q 1625 2713 2034 2713 
Q 2441 2713 2670 2916 
Q 2900 3119 2900 3481 
Q 2900 3844 2670 4047 
Q 2441 4250 2034 4250 
Q 1625 4250 1398 4047 
Q 1172 3844 1172 3481 
z
" transform="scale(0.015625)"/>
       </defs>
       <use xlink:href="#DejaVuSans-30"/>
       <use xlink:href="#DejaVuSans-2e" x="63.623047"/>
       <use xlink:href="#DejaVuSans-38" x="95.410156"/>
      </g>
     </g>
    </g>
    <g id="ytick_10">
     <g id="line2d_24">
      <g>
       <use xlink:href="#md9b614cf04" x="57.6" y="192.122182" style="stroke: #000000; stroke-width: 0.8"/>
      </g>
     </g>
     <g id="text_23">
      <!-- 1.0 -->
      <g transform="translate(34.696875 195.921401)scale(0.1 -0.1)">
       <use xlink:href="#DejaVuSans-31"/>
       <use xlink:href="#DejaVuSans-2e" x="63.623047"/>
       <use xlink:href="#DejaVuSans-30" x="95.410156"/>
      </g>
     </g>
    </g>
   </g>
   <g id="line2d_25">
    <path d="M 73.832727 302.085818 
L 74.140165 296.398044 
L 74.447603 293.975474 
L 74.601322 293.295621 
L 77.521983 276.761679 
L 78.290579 273.293468 
L 79.750909 266.379234 
L 79.981488 265.396162 
L 80.750083 262.542243 
L 81.057521 261.582879 
L 84.977355 249.701155 
L 86.745124 246.022564 
L 86.898843 218.665129 
L 87.052562 220.561053 
L 87.129421 220.181867 
L 87.206281 219.297101 
L 87.36 220.442558 
L 87.513719 219.613091 
L 87.590579 219.957808 
L 87.667438 219.929081 
L 87.744298 219.46725 
L 87.821157 219.748517 
L 87.898017 219.676287 
L 88.051736 218.497844 
L 88.128595 219.033777 
L 88.205455 218.964484 
L 88.359174 218.935974 
L 88.436033 218.923664 
L 88.512893 218.788773 
L 88.743471 217.863007 
L 88.97405 217.945984 
L 89.127769 217.839487 
L 89.588926 217.230376 
L 89.665785 217.243185 
L 89.819504 217.432775 
L 89.896364 217.393474 
L 89.973223 217.017477 
L 90.050083 217.121934 
L 90.280661 217.098928 
L 90.357521 217.091913 
L 90.51124 216.923977 
L 90.588099 217.034632 
L 90.664959 216.955076 
L 90.818678 216.858632 
L 90.895537 216.874536 
L 91.202975 216.556731 
L 91.433554 216.473935 
L 91.740992 216.010831 
L 91.894711 215.976875 
L 92.125289 215.861866 
L 92.586446 215.571775 
L 92.740165 215.468793 
L 93.355041 215.126803 
L 93.816198 214.842368 
L 94.277355 214.795893 
L 94.507934 214.704338 
L 94.892231 214.506612 
L 95.04595 214.48707 
L 95.12281 214.612371 
L 95.199669 214.554418 
L 95.660826 214.431988 
L 97.274876 213.752333 
L 97.582314 213.649669 
L 99.73438 212.944895 
L 99.964959 208.237542 
L 100.041818 208.237542 
L 100.118678 208.806318 
L 100.426116 207.500237 
L 100.579835 208.237542 
L 100.656694 208.158543 
L 100.733554 208.237542 
L 100.810413 208.779233 
L 100.887273 208.616729 
L 100.964132 208.593028 
L 101.194711 208.037972 
L 101.425289 208.237542 
L 101.809587 207.781114 
L 102.040165 208.111149 
L 102.193884 207.882056 
L 102.347603 208.014496 
L 102.424463 208.075038 
L 102.578182 207.878852 
L 102.80876 208.166448 
L 103.193058 208.069013 
L 103.807934 207.593644 
L 104.42281 207.351742 
L 104.576529 207.334724 
L 104.883967 207.119793 
L 105.268264 207.171085 
L 105.421983 207.110239 
L 105.729421 207.27743 
L 106.190579 207.142871 
L 106.344298 207.157307 
L 106.574876 207.151116 
L 107.49719 207.008009 
L 108.188926 207.091369 
L 108.573223 206.976338 
L 108.880661 207.002802 
L 109.802975 206.761327 
L 109.956694 206.697993 
L 110.340992 206.726301 
L 110.64843 206.648704 
L 110.955868 206.646781 
L 111.417025 206.541188 
L 112.031901 206.430489 
L 112.723636 206.274197 
L 112.877355 200.653843 
L 112.954215 202.549768 
L 113.031074 202.075787 
L 113.107934 201.980992 
L 113.184793 202.391777 
L 113.415372 201.707138 
L 113.64595 201.680805 
L 113.72281 201.528889 
L 113.876529 202.233778 
L 114.030248 202.103668 
L 114.107107 202.023121 
L 114.260826 202.312777 
L 114.414545 202.420504 
L 114.491405 202.302471 
L 114.721983 202.549768 
L 115.106281 202.85556 
L 115.26 202.779577 
L 115.33686 202.995868 
L 115.413719 202.95604 
L 115.567438 202.857216 
L 116.566612 203.023749 
L 116.720331 202.969058 
L 117.488926 203.130774 
L 117.950083 203.065574 
L 118.257521 202.95792 
L 118.488099 202.941589 
L 118.718678 202.890059 
L 118.949256 202.947679 
L 119.102975 202.983776 
L 119.410413 203.040094 
L 119.640992 202.992151 
L 119.94843 203.023749 
L 120.409587 202.976348 
L 120.640165 202.97313 
L 120.947603 202.921867 
L 121.178182 202.920333 
L 121.48562 202.857441 
L 121.869917 202.764852 
L 122.100496 202.806185 
L 122.331074 202.837949 
L 122.792231 202.889878 
L 123.560826 202.906093 
L 124.098843 202.818784 
L 124.329421 202.857383 
L 125.021157 202.893407 
L 125.712893 202.890999 
L 125.789752 198.757918 
L 125.866612 200.179862 
L 125.943471 203.49773 
L 126.020331 202.786759 
L 126.09719 202.739358 
L 126.17405 203.339739 
L 126.250909 203.091459 
L 126.481488 202.549768 
L 126.558347 202.808304 
L 126.788926 202.008077 
L 127.096364 202.339111 
L 127.250083 201.980992 
L 127.403802 202.075787 
L 128.018678 202.20218 
L 128.249256 202.003969 
L 128.556694 202.267944 
L 128.710413 202.039328 
L 128.864132 202.15671 
L 129.094711 202.054242 
L 129.402149 202.075787 
L 129.786446 201.941641 
L 129.863306 201.847576 
L 129.940165 201.912046 
L 130.093884 201.901161 
L 130.170744 202.026751 
L 130.247603 201.971351 
L 130.478182 201.892309 
L 131.093058 201.76431 
L 131.400496 201.627423 
L 132.092231 201.578966 
L 132.24595 201.62411 
L 132.399669 201.601806 
L 132.630248 201.549139 
L 133.398843 201.412216 
L 133.629421 201.417734 
L 134.013719 201.452587 
L 134.321157 201.48331 
L 136.088926 201.391148 
L 136.396364 201.43813 
L 136.626942 201.468289 
L 136.93438 201.439482 
L 137.164959 201.449116 
L 137.626116 201.399979 
L 138.317851 201.411059 
L 138.702149 201.399241 
L 138.855868 196.388013 
L 138.932727 196.546004 
L 139.317025 200.535348 
L 139.393884 200.864501 
L 139.547603 200.567662 
L 139.624463 200.653843 
L 139.701322 200.289245 
L 139.778182 200.382998 
L 139.855041 200.40105 
L 140.00876 200.151981 
L 140.239339 200.559048 
L 140.393058 200.524579 
L 140.623636 200.691763 
L 141.084793 200.500944 
L 141.315372 200.625962 
L 141.469091 200.495852 
L 141.699669 200.629535 
L 141.930248 200.428135 
L 142.083967 200.503034 
L 142.314545 200.452147 
L 142.468264 200.537764 
L 143.313719 200.464254 
L 143.467438 200.424497 
L 143.621157 200.431665 
L 143.928595 200.375028 
L 144.159174 200.413511 
L 144.77405 200.209862 
L 146.157521 200.204293 
L 146.772397 200.112153 
L 147.233554 200.090188 
L 148.540165 199.979901 
L 150.307934 200.164168 
L 150.692231 200.21632 
L 151.076529 200.19458 
L 151.691405 200.2002 
L 151.768264 204.445693 
L 151.921983 201.285816 
L 151.998843 201.601806 
L 152.075702 200.464254 
L 152.152562 200.811835 
L 152.306281 201.364815 
L 152.38314 200.864501 
L 152.46 200.938235 
L 152.53686 200.826198 
L 152.613719 201.048825 
L 152.921157 199.705881 
L 153.074876 199.705881 
L 153.228595 199.990272 
L 153.305455 199.976726 
L 153.536033 199.705881 
L 153.689752 199.742339 
L 153.766612 199.740994 
L 153.99719 199.516291 
L 154.227769 199.476072 
L 154.381488 199.35378 
L 154.688926 199.073908 
L 154.842645 199.058489 
L 155.150083 198.905379 
L 155.226942 198.881563 
L 155.380661 199.014661 
L 155.53438 198.985427 
L 155.841818 198.845691 
L 156.072397 198.99075 
L 156.379835 199.053188 
L 157.532727 198.882648 
L 157.840165 198.781619 
L 158.839339 198.72734 
L 159.454215 198.776687 
L 159.992231 198.722805 
L 160.22281 198.740836 
L 161.375702 198.720303 
L 161.68314 198.72875 
L 164.142645 198.857393 
L 164.603802 198.8482 
L 164.680661 198.854803 
L 164.757521 200.653843 
L 164.91124 199.073908 
L 164.988099 199.46889 
L 165.295537 197.691461 
L 165.449256 197.999546 
L 165.679835 197.518274 
L 165.756694 197.539111 
L 165.910413 197.869204 
L 166.064132 197.599299 
L 166.217851 197.904751 
L 166.37157 197.680692 
L 166.44843 197.768739 
L 166.755868 197.880175 
L 166.832727 197.979237 
L 166.909587 197.842646 
L 166.986446 198.031144 
L 167.063306 197.901692 
L 167.140165 197.987699 
L 167.293884 197.837837 
L 167.755041 198.046947 
L 168.062479 198.003856 
L 168.293058 198.011653 
L 168.600496 198.051597 
L 168.754215 198.11402 
L 169.061653 198.125946 
L 169.292231 198.110143 
L 169.599669 198.15063 
L 170.521983 198.196628 
L 170.906281 198.090833 
L 171.213719 198.133381 
L 171.674876 198.070387 
L 172.366612 198.018509 
L 172.67405 198.092525 
L 176.286446 198.067349 
L 176.593884 198.08517 
L 177.669917 198.061072 
L 177.746777 198.757918 
L 177.823636 200.653843 
L 177.900496 199.389891 
L 177.977355 199.942871 
L 178.669091 197.955797 
L 179.053388 197.967947 
L 179.207107 197.999546 
L 179.360826 197.896137 
L 179.437686 197.974818 
L 179.745124 197.599299 
L 180.28314 197.308094 
L 180.513719 197.169442 
L 180.667438 197.226592 
L 181.051736 197.228249 
L 181.282314 197.386399 
L 181.512893 197.43077 
L 181.666612 197.445357 
L 182.742645 197.221067 
L 182.973223 197.136766 
L 183.588099 197.095903 
L 184.049256 197.113261 
L 184.356694 197.069021 
L 184.587273 197.146385 
L 184.97157 197.121434 
L 186.431901 197.169666 
L 186.58562 197.180703 
L 187.200496 197.259529 
L 188.276529 197.219194 
L 190.659174 197.250459 
L 190.812893 196.861994 
L 190.889752 197.177984 
L 190.966612 196.625003 
L 191.120331 197.177984 
L 191.27405 196.269517 
L 191.427769 196.577602 
L 191.658347 196.27863 
L 191.812066 196.546004 
L 192.042645 196.651336 
L 192.196364 196.482807 
L 192.350083 196.818903 
L 192.426942 196.655914 
L 192.503802 196.704002 
L 192.657521 196.60677 
L 192.888099 196.698549 
L 193.118678 196.625003 
L 193.272397 196.583178 
L 193.502975 196.477687 
L 193.887273 196.410585 
L 194.040992 196.495739 
L 194.27157 196.458608 
L 194.809587 196.30024 
L 195.040165 196.363068 
L 195.962479 196.133852 
L 196.269917 196.303603 
L 197.653388 196.309881 
L 202.264959 196.566934 
L 203.64843 196.569314 
L 203.725289 194.966069 
L 203.879008 196.230021 
L 203.955868 195.44005 
L 204.032727 195.534845 
L 204.109587 195.44005 
L 204.186446 195.778605 
L 204.263306 195.677041 
L 204.724463 196.455722 
L 205.10876 196.063713 
L 205.18562 196.151022 
L 205.262479 196.049458 
L 205.339339 196.172567 
L 205.569917 195.914031 
L 205.723636 195.808699 
L 206.184793 195.71295 
L 206.415372 195.75604 
L 207.107107 195.914031 
L 207.491405 195.970907 
L 207.645124 195.95049 
L 207.798843 195.949145 
L 207.952562 195.947886 
L 208.798017 195.829138 
L 209.105455 195.927382 
L 209.566612 195.93865 
L 211.33438 196.113103 
L 211.949256 196.019364 
L 212.179835 196.127538 
L 212.717851 196.130938 
L 213.332727 196.087073 
L 214.946777 196.159086 
L 215.561653 196.158667 
L 215.94595 196.145099 
L 216.637686 196.158377 
L 216.714545 194.966069 
L 216.791405 196.388013 
L 216.868264 195.282059 
L 216.945124 195.44005 
L 217.021983 195.534845 
L 217.175702 196.049458 
L 217.252562 196.032527 
L 217.406281 195.62964 
L 217.48314 195.741677 
L 217.63686 195.476509 
L 217.713719 195.575476 
L 217.867438 195.44005 
L 218.098017 195.664565 
L 218.174876 195.582246 
L 218.251736 195.778605 
L 218.405455 195.584307 
L 218.559174 195.534845 
L 218.712893 195.878918 
L 219.17405 195.799123 
L 219.327769 195.778605 
L 219.404628 195.677041 
L 219.635207 195.914031 
L 219.942645 196.002216 
L 220.250083 195.914031 
L 220.63438 195.914031 
L 221.940992 195.69421 
L 222.17157 195.716537 
L 222.863306 195.715076 
L 223.170744 195.713289 
L 224.016198 195.726416 
L 224.477355 195.709572 
L 225.015372 195.705305 
L 225.630248 195.679066 
L 227.090579 195.656132 
L 228.012893 195.753899 
L 228.47405 195.747831 
L 229.626942 195.753068 
L 229.703802 194.018107 
L 229.857521 195.914031 
L 229.93438 195.20306 
L 230.088099 195.914031 
L 230.164959 195.914031 
L 230.549256 195.44005 
L 230.626116 195.476509 
L 230.779835 195.408452 
L 230.856694 195.44005 
L 231.087273 195.165639 
L 231.54843 195.003988 
L 231.702149 195.001182 
L 232.163306 194.908615 
L 233.239339 194.824886 
L 233.777355 194.790517 
L 234.238512 194.839676 
L 234.62281 194.79106 
L 235.929421 194.942947 
L 236.23686 194.988113 
L 236.544298 194.955539 
L 237.082314 194.97584 
L 237.466612 194.984656 
L 237.69719 194.984128 
L 239.23438 195.049487 
L 242.616198 195.33087 
L 242.693058 194.018107 
L 242.769917 194.492088 
L 242.923636 195.677041 
L 243.000496 195.724442 
L 243.077355 195.282059 
L 243.154215 195.643186 
L 243.538512 194.88707 
L 243.692231 194.898359 
L 244.307107 194.448997 
L 244.537686 194.624802 
L 244.768264 194.559797 
L 244.998843 194.537956 
L 245.38314 194.729078 
L 245.53686 194.691658 
L 245.690579 194.681677 
L 246.151736 194.677562 
L 246.305455 194.709327 
L 246.920331 194.542874 
L 247.842645 194.533913 
L 248.764959 194.527635 
L 248.995537 194.612008 
L 249.302975 194.693669 
L 249.994711 194.719206 
L 250.532727 194.708372 
L 251.839339 194.705378 
L 252.992231 194.748389 
L 253.683967 194.73566 
L 254.529421 194.788709 
L 255.374876 194.840435 
L 255.605455 194.846756 
L 255.682314 195.914031 
L 255.759174 194.492088 
L 255.836033 194.966069 
L 256.066612 195.75604 
L 256.143471 195.643186 
L 256.29719 195.176726 
L 256.450909 195.224605 
L 256.681488 194.762933 
L 256.835207 195.20306 
L 256.912066 195.133354 
L 257.373223 194.883634 
L 257.83438 194.802624 
L 258.141818 194.678806 
L 258.602975 194.455629 
L 258.833554 194.446943 
L 259.525289 194.464207 
L 259.755868 194.404316 
L 259.909587 194.441302 
L 260.293884 194.406616 
L 260.524463 194.447652 
L 260.755041 194.499161 
L 261.446777 194.591873 
L 261.907934 194.653934 
L 262.369091 194.642897 
L 262.983967 194.600711 
L 263.598843 194.610583 
L 265.827769 194.552673 
L 268.594711 194.615957 
L 268.74843 193.070144 
L 268.902149 194.018107 
L 268.979008 193.828517 
L 269.055868 193.860115 
L 269.132727 193.88268 
L 269.209587 193.662621 
L 269.286446 193.702117 
L 269.363306 193.63892 
L 269.440165 193.759571 
L 269.517025 193.702117 
L 269.747603 193.512527 
L 269.901322 193.79506 
L 269.978182 193.702117 
L 270.055041 193.76864 
L 270.28562 193.759571 
L 270.746777 193.747261 
L 271.438512 193.6338 
L 272.053388 193.617852 
L 272.283967 193.623125 
L 273.206281 193.828517 
L 273.43686 193.972962 
L 273.974876 194.167072 
L 274.436033 194.180257 
L 276.43438 194.23186 
L 278.509587 194.326748 
L 279.047603 194.303887 
L 280.200496 194.269222 
L 281.199669 194.27244 
L 281.583967 194.283824 
L 281.660826 196.861994 
L 281.814545 194.334096 
L 281.968264 193.828517 
L 282.352562 193.923312 
L 282.813719 193.603373 
L 283.121157 193.544125 
L 283.351736 193.647165 
L 283.659174 193.73723 
L 283.812893 193.887352 
L 284.504628 193.818536 
L 284.812066 193.837543 
L 286.887273 193.866979 
L 287.425289 193.80606 
L 288.347603 193.802661 
L 292.421157 194.018107 
L 292.882314 194.063251 
L 294.573223 194.131836 
L 294.650083 192.122182 
L 294.726942 194.018107 
L 294.803802 193.702117 
L 294.880661 193.781116 
L 295.11124 194.695224 
L 295.418678 194.018107 
L 295.495537 194.413088 
L 295.572397 194.382705 
L 295.649256 194.424378 
L 295.956694 194.123439 
L 296.110413 194.207696 
L 296.264132 194.233552 
L 296.494711 194.321454 
L 297.263306 194.288952 
L 297.647603 194.278798 
L 297.878182 194.172424 
L 298.18562 194.280309 
L 298.493058 194.148217 
L 298.723636 194.176098 
L 299.031074 194.132516 
L 301.644298 193.956284 
L 302.643471 193.927825 
L 303.258347 193.90066 
L 304.026942 193.85626 
L 305.794711 193.777869 
L 307.024463 193.807449 
L 307.562479 193.816598 
L 307.716198 192.596163 
L 307.869917 193.070144 
L 307.946777 192.880555 
L 308.100496 193.070144 
L 308.254215 192.964812 
L 308.331074 192.880555 
L 308.561653 193.070144 
L 308.792231 193.129392 
L 308.94595 193.175477 
L 309.176529 193.115289 
L 310.175702 193.181667 
L 310.406281 193.326351 
L 312.020331 193.266272 
L 312.481488 193.321947 
L 313.250083 193.249486 
L 316.631901 193.254917 
L 319.014545 193.343716 
L 320.551736 193.411288 
L 320.628595 194.018107 
L 320.782314 192.754154 
L 320.936033 193.63892 
L 321.166612 193.188639 
L 321.243471 193.386134 
L 321.39719 193.414861 
L 321.47405 193.623125 
L 321.550909 193.580584 
L 321.704628 193.512527 
L 322.012066 193.519181 
L 322.165785 193.476416 
L 322.319504 193.441086 
L 322.626942 193.315915 
L 322.857521 193.386134 
L 323.702975 193.370715 
L 323.933554 193.457944 
L 326.316198 193.297653 
L 326.623636 193.35813 
L 327.084793 193.371264 
L 327.54595 193.372241 
L 328.775702 193.389085 
L 329.467438 193.380681 
L 330.389752 193.344165 
L 331.619504 193.300553 
L 333.233554 193.294211 
L 333.540992 193.298702 
L 333.617851 192.122182 
L 333.694711 192.596163 
L 333.77157 192.438172 
L 333.925289 193.070144 
L 334.386446 192.983963 
L 334.693884 192.754154 
L 335.001322 193.169929 
L 335.155041 193.160426 
L 335.38562 193.070144 
L 335.539339 193.143061 
L 335.846777 193.101742 
L 336.077355 193.098871 
L 336.538512 193.191677 
L 337.230248 193.287383 
L 340.765785 193.191164 
L 341.150083 193.232923 
L 341.764959 193.238471 
L 344.378182 193.372682 
L 345.069917 193.40509 
L 345.992231 193.473906 
L 346.376529 193.478846 
L 346.530248 193.478839 
L 346.683967 192.596163 
L 346.760826 192.754154 
L 346.837686 192.596163 
L 347.068264 193.070144 
L 347.298843 192.880555 
L 347.76 192.892401 
L 348.144298 192.754154 
L 348.989752 192.80353 
L 351.449256 192.966461 
L 351.833554 193.001451 
L 352.602149 193.046147 
L 353.063306 193.081297 
L 353.90876 193.099768 
L 355.753388 193.188639 
L 356.368264 193.255293 
L 357.290579 193.259734 
L 359.288926 193.332831 
L 359.519504 193.338104 
L 359.596364 192.122182 
L 359.750083 194.334096 
L 359.826942 193.781116 
L 359.903802 193.449331 
L 359.980661 193.544125 
L 360.288099 192.975349 
L 360.441818 193.149143 
L 360.672397 193.006948 
L 361.902149 192.978409 
L 362.517025 192.875687 
L 362.901322 192.876244 
L 363.28562 192.915371 
L 364.207934 192.837037 
L 364.515372 192.865967 
L 364.74595 192.916796 
L 365.591405 193.034149 
L 365.898843 193.104411 
L 366.590579 193.193789 
L 367.051736 193.263603 
L 368.050909 193.266568 
L 368.896364 193.256631 
L 370.817851 193.308748 
L 372.431901 193.250708 
L 372.50876 193.253666 
L 372.58562 193.070144 
L 372.662479 192.596163 
L 372.739339 192.754154 
L 372.893058 192.880555 
L 373.046777 192.799299 
L 373.277355 192.785753 
L 373.584793 192.663873 
L 373.738512 192.655411 
L 374.04595 192.880555 
L 374.814545 192.880555 
L 375.045124 192.897789 
L 376.198017 192.87265 
L 376.736033 192.846078 
L 377.043471 192.82914 
L 378.426942 192.799299 
L 379.272397 192.811608 
L 383.807107 192.876685 
L 384.96 192.906302 
L 385.574876 193.070144 
L 385.651736 192.596163 
L 385.805455 193.070144 
L 385.882314 193.070144 
L 386.036033 192.934718 
L 386.189752 193.070144 
L 386.49719 193.070144 
L 386.727769 193.307135 
L 386.958347 193.319611 
L 387.573223 193.280802 
L 387.803802 193.354536 
L 390.340165 193.160426 
L 398.487273 193.090417 
L 398.487273 193.090417 
" clip-path="url(#p2e5c03526e)" style="fill: none; stroke: #1f77b4; stroke-width: 1.5; stroke-linecap: square"/>
   </g>
   <g id="line2d_26">
    <g clip-path="url(#p2e5c03526e)">
     <use xlink:href="#mf893af6594" x="73.832727" y="302.085818" style="fill: #ff7f0e; stroke: #ff7f0e; stroke-linejoin: miter"/>
     <use xlink:href="#mf893af6594" x="86.821983" y="222.456978" style="fill: #ff7f0e; stroke: #ff7f0e; stroke-linejoin: miter"/>
     <use xlink:href="#mf893af6594" x="99.81124" y="211.081429" style="fill: #ff7f0e; stroke: #ff7f0e; stroke-linejoin: miter"/>
     <use xlink:href="#mf893af6594" x="112.800496" y="203.49773" style="fill: #ff7f0e; stroke: #ff7f0e; stroke-linejoin: miter"/>
     <use xlink:href="#mf893af6594" x="125.789752" y="198.757918" style="fill: #ff7f0e; stroke: #ff7f0e; stroke-linejoin: miter"/>
     <use xlink:href="#mf893af6594" x="138.779008" y="196.861994" style="fill: #ff7f0e; stroke: #ff7f0e; stroke-linejoin: miter"/>
     <use xlink:href="#mf893af6594" x="151.768264" y="204.445693" style="fill: #ff7f0e; stroke: #ff7f0e; stroke-linejoin: miter"/>
     <use xlink:href="#mf893af6594" x="164.757521" y="200.653843" style="fill: #ff7f0e; stroke: #ff7f0e; stroke-linejoin: miter"/>
     <use xlink:href="#mf893af6594" x="177.746777" y="198.757918" style="fill: #ff7f0e; stroke: #ff7f0e; stroke-linejoin: miter"/>
     <use xlink:href="#mf893af6594" x="190.736033" y="196.861994" style="fill: #ff7f0e; stroke: #ff7f0e; stroke-linejoin: miter"/>
     <use xlink:href="#mf893af6594" x="203.725289" y="194.966069" style="fill: #ff7f0e; stroke: #ff7f0e; stroke-linejoin: miter"/>
     <use xlink:href="#mf893af6594" x="216.714545" y="194.966069" style="fill: #ff7f0e; stroke: #ff7f0e; stroke-linejoin: miter"/>
     <use xlink:href="#mf893af6594" x="229.703802" y="194.018107" style="fill: #ff7f0e; stroke: #ff7f0e; stroke-linejoin: miter"/>
     <use xlink:href="#mf893af6594" x="242.693058" y="194.018107" style="fill: #ff7f0e; stroke: #ff7f0e; stroke-linejoin: miter"/>
     <use xlink:href="#mf893af6594" x="255.682314" y="195.914031" style="fill: #ff7f0e; stroke: #ff7f0e; stroke-linejoin: miter"/>
     <use xlink:href="#mf893af6594" x="268.67157" y="194.018107" style="fill: #ff7f0e; stroke: #ff7f0e; stroke-linejoin: miter"/>
     <use xlink:href="#mf893af6594" x="281.660826" y="196.861994" style="fill: #ff7f0e; stroke: #ff7f0e; stroke-linejoin: miter"/>
     <use xlink:href="#mf893af6594" x="294.650083" y="192.122182" style="fill: #ff7f0e; stroke: #ff7f0e; stroke-linejoin: miter"/>
     <use xlink:href="#mf893af6594" x="307.639339" y="193.070144" style="fill: #ff7f0e; stroke: #ff7f0e; stroke-linejoin: miter"/>
     <use xlink:href="#mf893af6594" x="320.628595" y="194.018107" style="fill: #ff7f0e; stroke: #ff7f0e; stroke-linejoin: miter"/>
     <use xlink:href="#mf893af6594" x="333.617851" y="192.122182" style="fill: #ff7f0e; stroke: #ff7f0e; stroke-linejoin: miter"/>
     <use xlink:href="#mf893af6594" x="346.607107" y="193.070144" style="fill: #ff7f0e; stroke: #ff7f0e; stroke-linejoin: miter"/>
     <use xlink:href="#mf893af6594" x="359.596364" y="192.122182" style="fill: #ff7f0e; stroke: #ff7f0e; stroke-linejoin: miter"/>
     <use xlink:href="#mf893af6594" x="372.58562" y="193.070144" style="fill: #ff7f0e; stroke: #ff7f0e; stroke-linejoin: miter"/>
     <use xlink:href="#mf893af6594" x="385.574876" y="193.070144" style="fill: #ff7f0e; stroke: #ff7f0e; stroke-linejoin: miter"/>
    </g>
   </g>
   <g id="patch_9">
    <path d="M 57.6 307.584 
L 57.6 186.624 
" style="fill: none; stroke: #000000; stroke-width: 0.8; stroke-linejoin: miter; stroke-linecap: square"/>
   </g>
   <g id="patch_10">
    <path d="M 414.72 307.584 
L 414.72 186.624 
" style="fill: none; stroke: #000000; stroke-width: 0.8; stroke-linejoin: miter; stroke-linecap: square"/>
   </g>
   <g id="patch_11">
    <path d="M 57.6 307.584 
L 414.72 307.584 
" style="fill: none; stroke: #000000; stroke-width: 0.8; stroke-linejoin: miter; stroke-linecap: square"/>
   </g>
   <g id="patch_12">
    <path d="M 57.6 186.624 
L 414.72 186.624 
" style="fill: none; stroke: #000000; stroke-width: 0.8; stroke-linejoin: miter; stroke-linecap: square"/>
   </g>
   <g id="text_24">
    <!-- categorical_accuracy -->
    <g transform="translate(172.812187 180.624)scale(0.12 -0.12)">
     <defs>
      <path id="DejaVuSans-65" d="M 3597 1894 
L 3597 1613 
L 953 1613 
Q 991 1019 1311 708 
Q 1631 397 2203 397 
Q 2534 397 2845 478 
Q 3156 559 3463 722 
L 3463 178 
Q 3153 47 2828 -22 
Q 2503 -91 2169 -91 
Q 1331 -91 842 396 
Q 353 884 353 1716 
Q 353 2575 817 3079 
Q 1281 3584 2069 3584 
Q 2775 3584 3186 3129 
Q 3597 2675 3597 1894 
z
M 3022 2063 
Q 3016 2534 2758 2815 
Q 2500 3097 2075 3097 
Q 1594 3097 1305 2825 
Q 1016 2553 972 2059 
L 3022 2063 
z
" transform="scale(0.015625)"/>
      <path id="DejaVuSans-67" d="M 2906 1791 
Q 2906 2416 2648 2759 
Q 2391 3103 1925 3103 
Q 1463 3103 1205 2759 
Q 947 2416 947 1791 
Q 947 1169 1205 825 
Q 1463 481 1925 481 
Q 2391 481 2648 825 
Q 2906 1169 2906 1791 
z
M 3481 434 
Q 3481 -459 3084 -895 
Q 2688 -1331 1869 -1331 
Q 1566 -1331 1297 -1286 
Q 1028 -1241 775 -1147 
L 775 -588 
Q 1028 -725 1275 -790 
Q 1522 -856 1778 -856 
Q 2344 -856 2625 -561 
Q 2906 -266 2906 331 
L 2906 616 
Q 2728 306 2450 153 
Q 2172 0 1784 0 
Q 1141 0 747 490 
Q 353 981 353 1791 
Q 353 2603 747 3093 
Q 1141 3584 1784 3584 
Q 2172 3584 2450 3431 
Q 2728 3278 2906 2969 
L 2906 3500 
L 3481 3500 
L 3481 434 
z
" transform="scale(0.015625)"/>
      <path id="DejaVuSans-72" d="M 2631 2963 
Q 2534 3019 2420 3045 
Q 2306 3072 2169 3072 
Q 1681 3072 1420 2755 
Q 1159 2438 1159 1844 
L 1159 0 
L 581 0 
L 581 3500 
L 1159 3500 
L 1159 2956 
Q 1341 3275 1631 3429 
Q 1922 3584 2338 3584 
Q 2397 3584 2469 3576 
Q 2541 3569 2628 3553 
L 2631 2963 
z
" transform="scale(0.015625)"/>
      <path id="DejaVuSans-69" d="M 603 3500 
L 1178 3500 
L 1178 0 
L 603 0 
L 603 3500 
z
M 603 4863 
L 1178 4863 
L 1178 4134 
L 603 4134 
L 603 4863 
z
" transform="scale(0.015625)"/>
      <path id="DejaVuSans-5f" d="M 3263 -1063 
L 3263 -1509 
L -63 -1509 
L -63 -1063 
L 3263 -1063 
z
" transform="scale(0.015625)"/>
      <path id="DejaVuSans-75" d="M 544 1381 
L 544 3500 
L 1119 3500 
L 1119 1403 
Q 1119 906 1312 657 
Q 1506 409 1894 409 
Q 2359 409 2629 706 
Q 2900 1003 2900 1516 
L 2900 3500 
L 3475 3500 
L 3475 0 
L 2900 0 
L 2900 538 
Q 2691 219 2414 64 
Q 2138 -91 1772 -91 
Q 1169 -91 856 284 
Q 544 659 544 1381 
z
M 1991 3584 
L 1991 3584 
z
" transform="scale(0.015625)"/>
      <path id="DejaVuSans-79" d="M 2059 -325 
Q 1816 -950 1584 -1140 
Q 1353 -1331 966 -1331 
L 506 -1331 
L 506 -850 
L 844 -850 
Q 1081 -850 1212 -737 
Q 1344 -625 1503 -206 
L 1606 56 
L 191 3500 
L 800 3500 
L 1894 763 
L 2988 3500 
L 3597 3500 
L 2059 -325 
z
" transform="scale(0.015625)"/>
     </defs>
     <use xlink:href="#DejaVuSans-63"/>
     <use xlink:href="#DejaVuSans-61" x="54.980469"/>
     <use xlink:href="#DejaVuSans-74" x="116.259766"/>
     <use xlink:href="#DejaVuSans-65" x="155.46875"/>
     <use xlink:href="#DejaVuSans-67" x="216.992188"/>
     <use xlink:href="#DejaVuSans-6f" x="280.46875"/>
     <use xlink:href="#DejaVuSans-72" x="341.650391"/>
     <use xlink:href="#DejaVuSans-69" x="382.763672"/>
     <use xlink:href="#DejaVuSans-63" x="410.546875"/>
     <use xlink:href="#DejaVuSans-61" x="465.527344"/>
     <use xlink:href="#DejaVuSans-6c" x="526.806641"/>
     <use xlink:href="#DejaVuSans-5f" x="554.589844"/>
     <use xlink:href="#DejaVuSans-61" x="604.589844"/>
     <use xlink:href="#DejaVuSans-63" x="665.869141"/>
     <use xlink:href="#DejaVuSans-63" x="720.849609"/>
     <use xlink:href="#DejaVuSans-75" x="775.830078"/>
     <use xlink:href="#DejaVuSans-72" x="839.208984"/>
     <use xlink:href="#DejaVuSans-61" x="880.322266"/>
     <use xlink:href="#DejaVuSans-63" x="941.601562"/>
     <use xlink:href="#DejaVuSans-79" x="996.582031"/>
    </g>
   </g>
   <g id="legend_2">
    <g id="patch_13">
     <path d="M 345.098125 302.584 
L 407.72 302.584 
Q 409.72 302.584 409.72 300.584 
L 409.72 272.22775 
Q 409.72 270.22775 407.72 270.22775 
L 345.098125 270.22775 
Q 343.098125 270.22775 343.098125 272.22775 
L 343.098125 300.584 
Q 343.098125 302.584 345.098125 302.584 
z
" style="fill: #ffffff; opacity: 0.8; stroke: #cccccc; stroke-linejoin: miter"/>
    </g>
    <g id="line2d_27">
     <path d="M 347.098125 278.326187 
L 357.098125 278.326187 
L 367.098125 278.326187 
" style="fill: none; stroke: #1f77b4; stroke-width: 1.5; stroke-linecap: square"/>
    </g>
    <g id="text_25">
     <!-- Batch -->
     <g transform="translate(375.098125 281.826187)scale(0.1 -0.1)">
      <use xlink:href="#DejaVuSans-42"/>
      <use xlink:href="#DejaVuSans-61" x="68.603516"/>
      <use xlink:href="#DejaVuSans-74" x="129.882812"/>
      <use xlink:href="#DejaVuSans-63" x="169.091797"/>
      <use xlink:href="#DejaVuSans-68" x="224.072266"/>
     </g>
    </g>
    <g id="line2d_28">
     <g>
      <use xlink:href="#mf893af6594" x="357.098125" y="293.004312" style="fill: #ff7f0e; stroke: #ff7f0e; stroke-linejoin: miter"/>
     </g>
    </g>
    <g id="text_26">
     <!-- Epoch -->
     <g transform="translate(375.098125 296.504312)scale(0.1 -0.1)">
      <use xlink:href="#DejaVuSans-45"/>
      <use xlink:href="#DejaVuSans-70" x="63.183594"/>
      <use xlink:href="#DejaVuSans-6f" x="126.660156"/>
      <use xlink:href="#DejaVuSans-63" x="187.841797"/>
      <use xlink:href="#DejaVuSans-68" x="242.822266"/>
     </g>
    </g>
   </g>
  </g>
 </g>
 <defs>
  <clipPath id="pf7fa966d51">
   <rect x="57.6" y="41.472" width="357.12" height="120.96"/>
  </clipPath>
  <clipPath id="p2e5c03526e">
   <rect x="57.6" y="186.624" width="357.12" height="120.96"/>
  </clipPath>
 </defs>
</svg>
